<svg xmlns="http://www.w3.org/2000/svg" width="800" height="800" fill="none" viewBox="0 -4 28 28"><g clip-path="url(#a)"><rect width="28" height="20" fill="#fff" rx="2"/><mask id="b" width="28" height="20" x="0" y="0" maskUnits="userSpaceOnUse" style="mask-type:alpha"><rect width="28" height="20" fill="#fff" rx="2"/></mask><g mask="url(#b)"><path fill="#ff2936" d="M0 0h28v20H0z"/><path fill="#128415" fill-rule="evenodd" d="M0 20h10.667V0H0z" clip-rule="evenodd"/><path stroke="#faf94f" stroke-width="1.333" d="M10.667 13.333a3.333 3.333 0 1 0 0-6.666 3.333 3.333 0 0 0 0 6.666Z"/><path fill="#fff" fill-rule="evenodd" d="M9.334 8.333c0-.184.149-.333.333-.333h2c.184 0 .333.15.333.333v2.334a1.333 1.333 0 0 1-2.667 0z" clip-rule="evenodd"/><path fill="#1d50b5" fill-rule="evenodd" d="M10.667 10.667c.368 0 .666-.965.666-1.334a.667.667 0 1 0-1.333 0c0 .369.299 1.334.667 1.334" clip-rule="evenodd"/></g></g><defs><clipPath id="a"><rect width="28" height="20" fill="#fff" rx="2"/></clipPath></defs></svg>