<svg xmlns="http://www.w3.org/2000/svg" width="800" height="800" fill="none" viewBox="0 -4 28 28"><g clip-path="url(#a)"><rect width="27.5" height="19.5" x=".25" y=".25" fill="#fff" stroke="#f5f5f5" stroke-width=".5" rx="1.75"/><mask id="b" width="28" height="20" x="0" y="0" maskUnits="userSpaceOnUse" style="mask-type:alpha"><rect width="27.5" height="19.5" x=".25" y=".25" fill="#fff" stroke="#fff" stroke-width=".5" rx="1.75"/></mask><g fill-rule="evenodd" clip-rule="evenodd" mask="url(#b)"><path fill="#262626" d="M0 20h28v-6.667H0z"/><path fill="#e32139" d="M0 6.667h28V0H0z"/><path fill="#128a49" d="m9.333 11.093-1.567 1.064.527-1.82-1.496-1.161 1.894-.06.642-1.783.643 1.782 1.893.06-1.496 1.163.528 1.82zm9.334 0-1.568 1.064.528-1.82-1.496-1.161 1.893-.06.643-1.783.642 1.782 1.894.061-1.497 1.162.528 1.82z"/></g></g><defs><clipPath id="a"><rect width="28" height="20" fill="#fff" rx="2"/></clipPath></defs></svg>