<svg xmlns="http://www.w3.org/2000/svg" width="800" height="800" fill="none" viewBox="0 -4 28 28"><g clip-path="url(#a)"><path fill="url(#b)" d="M28 0H0v20h28z"/><path fill="url(#c)" d="M28 9.333H0V20h28z"/><path fill="url(#d)" d="M28 0H0v9.333h28z"/><path fill="url(#e)" fill-rule="evenodd" d="m10.755 15.195 1.648-.281-1.276-.602.873-.49s1.471 1.243 1.471.845c0-.428 1.385-.241 1.33-.845-.077-.825-1.533-.06-1.793-1.092-.145-.577-.605-.503-.605-.503l-1.466.503-.73 1.092-.363-1.092s-.855.695-1.14 1.092c-.305.425-.627 1.373-.627 1.373l1.496.624-2.181-.384-1.591.384-.977.272.429-.45-.875-.447.875-.527-.43-.355 1.891.355s.691-.07.952-.355c.33-.36.589-1.582.589-1.582l-.863-.503-.678 1.228s-.467-1.162-.913-1.813c-.333-.486-1.423-1.596-1.423-1.596l-1.406.739.784-1.563s.622-.544.227-1.1c-.396-.558-.727-1.805-.727-1.805s.823 1.429 1.122 1.318c.422-.156-.526-1.46 0-1.691.378-.167.446 1.494.446 1.494l.429-.815v1.012s-.25 1.21.174 1.93c.424.718 1.68 1.22 1.68 1.22s-.326-.721 0-2.107c.222-.937 1.01-2.537 1.38-3.05.194-.27-1.563.995-1.563.995v-.994l-1.671-.172-.43.487-1.067-1.752 1.329.668h2.023l-.394-.483h-1.63s.343-.705 2.024-.705l.795-.54s1.086.03 1.698.054c.544.02 1.526-.67 1.526-.67l.276.67-.648 1.006.648.668-.276.412.475.672h-.847l.648 1.044-.648-.365.372 1.012-.372 1.043 1.648-.557s0-1.498.605-2.177c1.848-1.896 4.86-3.428 4.86-3.428s-.16 1.376.287 1.484c.647.157 3.473-1.134 3.473-1.134s-1.698 1.828-1.35 1.994c.187.09.498.412.498.412s-1.468 1.2-1.713 1.716c-.245.517.36 1.133.36 1.133s-1.268 0-1.9.557c1.9 0 3.454.9 4.374.237.616-.446-2.208-.168-1.837-1.28.137-.413.497-.89 1.32-1.012.822-.123 1.114.365 1.114.365l.443-.67h-1.31L24 4l.309 2.988-.803-.67-.36 1.12C24 10.046 20.06 10.6 20.06 10.6l2.434 1.627-.866.248-.248 2.439 1.114.906-1.465-.385-2.875.656.572-.897-1.203.241.804-.768-.804-.355 1.027-.286 1.295.888s.64-.83.712-1.27c.073-.455-.28-1.417-.28-1.417s-1.907-.04-2.58-.207-1.062-.696-1.062-.696l-.764.903s2.662.997 1.997 1.416c-.154.098-.916-.188-.916-.188s-1.312 1.534-2.152 1.74c-.382.093 1.071.624 1.071.624s-1.24-.196-1.871-.384c-.66-.196-2.597.384-2.597.384zM21.449 8.07a.333.333 0 1 0 0-.667.333.333 0 0 0 0 .667" clip-rule="evenodd"/></g><defs><linearGradient id="b" x1="14" x2="14" y1="0" y2="20" gradientUnits="userSpaceOnUse"><stop stop-color="#fff"/><stop offset="1" stop-color="#f0f0f0"/></linearGradient><linearGradient id="c" x1="14" x2="14" y1="9.333" y2="20" gradientUnits="userSpaceOnUse"><stop stop-color="#3acc55"/><stop offset="1" stop-color="#28a940"/></linearGradient><linearGradient id="d" x1="14" x2="14" y1="0" y2="9.333" gradientUnits="userSpaceOnUse"><stop stop-color="#fff"/><stop offset="1" stop-color="#f0f0f0"/></linearGradient><linearGradient id="e" x1="13.64" x2="13.64" y1="2.516" y2="16.091" gradientUnits="userSpaceOnUse"><stop stop-color="#e91c44"/><stop offset="1" stop-color="#d20f35"/></linearGradient><clipPath id="a"><rect width="28" height="20" fill="#fff" rx="2"/></clipPath></defs></svg>