<svg xmlns="http://www.w3.org/2000/svg" viewBox="0 0 802 1046"><defs><pattern id="a" width="1000" height="930" x="0" y="0" patternTransform="translate(-1198 4860)" patternUnits="userSpaceOnUse" viewBox="0 0 1000 930"><path fill="none" d="M0 0h1000v930H0z"/><path fill="#00432b" d="M916.38 714.41h-32.77a5.77 5.77 0 0 0-5 2.89l-16.38 28.38a5.79 5.79 0 0 0 0 5.78l16.38 28.38a5.77 5.77 0 0 0 5 2.89h32.77c2.06 0 3.97-1.1 5-2.89l16.38-28.38a5.79 5.79 0 0 0 0-5.78l-16.38-28.38a5.77 5.77 0 0 0-5-2.89m0 73.14h-32.77a5.77 5.77 0 0 0-5 2.89l-16.38 28.38a5.79 5.79 0 0 0 0 5.78l16.38 28.38a5.77 5.77 0 0 0 5 2.89h32.77c2.06 0 3.97-1.1 5-2.89l16.38-28.38a5.79 5.79 0 0 0 0-5.78l-16.38-28.38a5.77 5.77 0 0 0-5-2.89"/><path fill="#00a86b" d="M916.38 861.78h-32.77a5.77 5.77 0 0 0-5 2.89l-16.38 28.38a5.79 5.79 0 0 0 0 5.78l16.38 28.38a5.77 5.77 0 0 0 5 2.89h32.77c2.06 0 3.97-1.1 5-2.89l16.38-28.38a5.79 5.79 0 0 0 0-5.78l-16.38-28.38a5.77 5.77 0 0 0-5-2.89m-66.57-110.73h-32.77a5.77 5.77 0 0 0-5 2.89l-16.38 28.38a5.79 5.79 0 0 0 0 5.78l16.38 28.38a5.77 5.77 0 0 0 5 2.89h32.77c2.06 0 3.97-1.1 5-2.89l16.38-28.38a5.79 5.79 0 0 0 0-5.78l-16.38-28.38a5.77 5.77 0 0 0-5-2.89m0 73.13h-32.77a5.77 5.77 0 0 0-5 2.89l-16.38 28.38a5.79 5.79 0 0 0 0 5.78l16.38 28.38a5.77 5.77 0 0 0 5 2.89h32.77c2.06 0 3.97-1.1 5-2.89l16.38-28.38a5.79 5.79 0 0 0 0-5.78l-16.38-28.38a5.77 5.77 0 0 0-5-2.89"/><path fill="#00432b" d="M849.81 897.59h-32.77a5.77 5.77 0 0 0-5 2.89l-16.38 28.38a5.79 5.79 0 0 0 0 5.78l16.38 28.38a5.77 5.77 0 0 0 5 2.89h32.77c2.06 0 3.97-1.1 5-2.89l16.38-28.38a5.79 5.79 0 0 0 0-5.78l-16.38-28.38a5.77 5.77 0 0 0-5-2.89"/><path fill="#00a86b" d="M982.96 751.05h-32.77a5.77 5.77 0 0 0-5 2.89l-16.38 28.38a5.79 5.79 0 0 0 0 5.78l16.38 28.38a5.77 5.77 0 0 0 5 2.89h32.77c2.06 0 3.97-1.1 5-2.89l16.38-28.38a5.79 5.79 0 0 0 0-5.78l-16.38-28.38a5.77 5.77 0 0 0-5-2.89m0 73.13h-32.77a5.77 5.77 0 0 0-5 2.89l-16.38 28.38a5.79 5.79 0 0 0 0 5.78l16.38 28.38a5.77 5.77 0 0 0 5 2.89h32.77c2.06 0 3.97-1.1 5-2.89l16.38-28.38a5.79 5.79 0 0 0 0-5.78l-16.38-28.38a5.77 5.77 0 0 0-5-2.89"/><path fill="#00432b" d="M982.96 897.59h-32.77a5.77 5.77 0 0 0-5 2.89l-16.38 28.38a5.79 5.79 0 0 0 0 5.78l16.38 28.38a5.77 5.77 0 0 0 5 2.89h32.77c2.06 0 3.97-1.1 5-2.89l16.38-28.38a5.79 5.79 0 0 0 0-5.78l-16.38-28.38a5.77 5.77 0 0 0-5-2.89m-266.58 2.82h-32.77a5.77 5.77 0 0 0-5 2.89l-16.38 28.38a5.79 5.79 0 0 0 0 5.78l16.38 28.38a5.77 5.77 0 0 0 5 2.89h32.77c2.06 0 3.97-1.1 5-2.89l16.38-28.38a5.79 5.79 0 0 0 0-5.78l-16.38-28.38a5.77 5.77 0 0 0-5-2.89"/><path fill="#00a86b" d="M-17.04 751.05h-32.77a5.77 5.77 0 0 0-5 2.89l-16.38 28.38a5.79 5.79 0 0 0 0 5.78l16.38 28.38a5.77 5.77 0 0 0 5 2.89h32.77c2.06 0 3.97-1.1 5-2.89L4.34 788.1a5.79 5.79 0 0 0 0-5.78l-16.38-28.38a5.77 5.77 0 0 0-5-2.89m0 73.13h-32.77a5.77 5.77 0 0 0-5 2.89l-16.38 28.38a5.79 5.79 0 0 0 0 5.78l16.38 28.38a5.77 5.77 0 0 0 5 2.89h32.77c2.06 0 3.97-1.1 5-2.89l16.38-28.38a5.79 5.79 0 0 0 0-5.78l-16.38-28.38a5.77 5.77 0 0 0-5-2.89"/><path fill="#00432b" d="M-17.04 897.59h-32.77a5.77 5.77 0 0 0-5 2.89l-16.38 28.38a5.79 5.79 0 0 0 0 5.78l16.38 28.38a5.77 5.77 0 0 0 5 2.89h32.77c2.06 0 3.97-1.1 5-2.89l16.38-28.38a5.79 5.79 0 0 0 0-5.78l-16.38-28.38a5.77 5.77 0 0 0-5-2.89"/><path fill="#00a86b" d="M1049.81 565.05h-32.77a5.77 5.77 0 0 0-5 2.89l-16.38 28.38a5.79 5.79 0 0 0 0 5.78l16.38 28.38a5.77 5.77 0 0 0 5 2.89h32.77c2.06 0 3.97-1.1 5-2.89l16.38-28.38a5.79 5.79 0 0 0 0-5.78l-16.38-28.38a5.77 5.77 0 0 0-5-2.89m0 73.13h-32.77a5.77 5.77 0 0 0-5 2.89l-16.38 28.38a5.79 5.79 0 0 0 0 5.78l16.38 28.38a5.77 5.77 0 0 0 5 2.89h32.77c2.06 0 3.97-1.1 5-2.89l16.38-28.38a5.79 5.79 0 0 0 0-5.78l-16.38-28.38a5.77 5.77 0 0 0-5-2.89"/><path fill="#00432b" d="M1049.81 711.59h-32.77a5.77 5.77 0 0 0-5 2.89l-16.38 28.38a5.79 5.79 0 0 0 0 5.78l16.38 28.38a5.77 5.77 0 0 0 5 2.89h32.77c2.06 0 3.97-1.1 5-2.89l16.38-28.38a5.79 5.79 0 0 0 0-5.78l-16.38-28.38a5.77 5.77 0 0 0-5-2.89m0 73.14h-32.77a5.77 5.77 0 0 0-5 2.89L995.66 816a5.79 5.79 0 0 0 0 5.78l16.38 28.38a5.77 5.77 0 0 0 5 2.89h32.77c2.06 0 3.97-1.1 5-2.89l16.38-28.38a5.79 5.79 0 0 0 0-5.78l-16.38-28.38a5.77 5.77 0 0 0-5-2.89"/><path fill="#00a86b" d="M1049.81 857.59h-32.77a5.77 5.77 0 0 0-5 2.89l-16.38 28.38a5.79 5.79 0 0 0 0 5.78l16.38 28.38a5.77 5.77 0 0 0 5 2.89h32.77c2.06 0 3.97-1.1 5-2.89l16.38-28.38a5.79 5.79 0 0 0 0-5.78l-16.38-28.38a5.77 5.77 0 0 0-5-2.89M916.38-68.22h-32.77a5.77 5.77 0 0 0-5 2.89l-16.38 28.38a5.79 5.79 0 0 0 0 5.78l16.38 28.38a5.77 5.77 0 0 0 5 2.89h32.77c2.06 0 3.97-1.1 5-2.89l16.38-28.38a5.79 5.79 0 0 0 0-5.78l-16.38-28.38a5.77 5.77 0 0 0-5-2.89m0 73.13h-32.77a5.77 5.77 0 0 0-5 2.89l-16.38 28.38a5.79 5.79 0 0 0 0 5.78l16.38 28.38a5.77 5.77 0 0 0 5 2.89h32.77c2.06 0 3.97-1.1 5-2.89l16.38-28.38a5.79 5.79 0 0 0 0-5.78L921.38 7.8a5.77 5.77 0 0 0-5-2.89"/><path fill="#00432b" d="M849.81-32.41h-32.77a5.77 5.77 0 0 0-5 2.89L795.66-1.14a5.79 5.79 0 0 0 0 5.78l16.38 28.38a5.77 5.77 0 0 0 5 2.89h32.77c2.06 0 3.97-1.1 5-2.89l16.38-28.38a5.79 5.79 0 0 0 0-5.78l-16.38-28.38a5.77 5.77 0 0 0-5-2.89m0 73.14h-32.77a5.77 5.77 0 0 0-5 2.89L795.66 72a5.79 5.79 0 0 0 0 5.78l16.38 28.38a5.77 5.77 0 0 0 5 2.89h32.77c2.06 0 3.97-1.1 5-2.89l16.38-28.38a5.79 5.79 0 0 0 0-5.78l-16.38-28.38a5.77 5.77 0 0 0-5-2.89m133.15-73.14h-32.77a5.77 5.77 0 0 0-5 2.89L928.81-1.14a5.79 5.79 0 0 0 0 5.78l16.38 28.38a5.77 5.77 0 0 0 5 2.89h32.77c2.06 0 3.97-1.1 5-2.89l16.38-28.38a5.79 5.79 0 0 0 0-5.78l-16.38-28.38a5.77 5.77 0 0 0-5-2.89m0 73.14h-32.77a5.77 5.77 0 0 0-5 2.89L928.81 72a5.79 5.79 0 0 0 0 5.78l16.38 28.38a5.77 5.77 0 0 0 5 2.89h32.77c2.06 0 3.97-1.1 5-2.89l16.38-28.38a5.79 5.79 0 0 0 0-5.78l-16.38-28.38a5.77 5.77 0 0 0-5-2.89m-66.58 36.23h-32.77a5.77 5.77 0 0 0-5 2.89l-16.38 28.38a5.79 5.79 0 0 0 0 5.78l16.38 28.38a5.77 5.77 0 0 0 5 2.89h32.77c2.06 0 3.97-1.1 5-2.89l16.38-28.38a5.79 5.79 0 0 0 0-5.78l-16.38-28.38a5.77 5.77 0 0 0-5-2.89m0 73.13h-32.77a5.77 5.77 0 0 0-5 2.89l-16.38 28.38a5.79 5.79 0 0 0 0 5.78l16.38 28.38a5.77 5.77 0 0 0 5 2.89h32.77c2.06 0 3.97-1.1 5-2.89l16.38-28.38a5.79 5.79 0 0 0 0-5.78l-16.38-28.38a5.77 5.77 0 0 0-5-2.89"/><path fill="#00a86b" d="M916.38 224.33h-32.77a5.77 5.77 0 0 0-5 2.89l-16.38 28.38a5.79 5.79 0 0 0 0 5.78l16.38 28.38a5.77 5.77 0 0 0 5 2.89h32.77c2.06 0 3.97-1.1 5-2.89l16.38-28.38a5.79 5.79 0 0 0 0-5.78l-16.38-28.38a5.77 5.77 0 0 0-5-2.89m0 73.13h-32.77a5.77 5.77 0 0 0-5 2.89l-16.38 28.38a5.79 5.79 0 0 0 0 5.78l16.38 28.38a5.77 5.77 0 0 0 5 2.89h32.77c2.06 0 3.97-1.1 5-2.89l16.38-28.38a5.79 5.79 0 0 0 0-5.78l-16.38-28.38a5.77 5.77 0 0 0-5-2.89m-66.57-183.87h-32.77a5.77 5.77 0 0 0-5 2.89l-16.38 28.38a5.79 5.79 0 0 0 0 5.78l16.38 28.38a5.77 5.77 0 0 0 5 2.89h32.77c2.06 0 3.97-1.1 5-2.89l16.38-28.38a5.79 5.79 0 0 0 0-5.78l-16.38-28.38a5.77 5.77 0 0 0-5-2.89m0 73.14h-32.77a5.77 5.77 0 0 0-5 2.89L795.66 218a5.79 5.79 0 0 0 0 5.78l16.38 28.38a5.77 5.77 0 0 0 5 2.89h32.77c2.06 0 3.97-1.1 5-2.89l16.38-28.38a5.79 5.79 0 0 0 0-5.78l-16.38-28.38a5.77 5.77 0 0 0-5-2.89"/><path fill="#00432b" d="M849.81 260.14h-32.77a5.77 5.77 0 0 0-5 2.89l-16.38 28.38a5.79 5.79 0 0 0 0 5.78l16.38 28.38a5.77 5.77 0 0 0 5 2.89h32.77c2.06 0 3.97-1.1 5-2.89l16.38-28.38a5.79 5.79 0 0 0 0-5.78l-16.38-28.38a5.77 5.77 0 0 0-5-2.89m0 73.14h-32.77a5.77 5.77 0 0 0-5 2.89l-16.38 28.38a5.79 5.79 0 0 0 0 5.78l16.38 28.38a5.77 5.77 0 0 0 5 2.89h32.77c2.06 0 3.97-1.1 5-2.89l16.38-28.38a5.79 5.79 0 0 0 0-5.78l-16.38-28.38a5.77 5.77 0 0 0-5-2.89"/><path fill="#00a86b" d="M982.96 113.59h-32.77a5.77 5.77 0 0 0-5 2.89l-16.38 28.38a5.79 5.79 0 0 0 0 5.78l16.38 28.38a5.77 5.77 0 0 0 5 2.89h32.77c2.06 0 3.97-1.1 5-2.89l16.38-28.38a5.79 5.79 0 0 0 0-5.78l-16.38-28.38a5.77 5.77 0 0 0-5-2.89m0 73.14h-32.77a5.77 5.77 0 0 0-5 2.89L928.81 218a5.79 5.79 0 0 0 0 5.78l16.38 28.38a5.77 5.77 0 0 0 5 2.89h32.77c2.06 0 3.97-1.1 5-2.89l16.38-28.38a5.79 5.79 0 0 0 0-5.78l-16.38-28.38a5.77 5.77 0 0 0-5-2.89"/><path fill="#00432b" d="M982.96 260.14h-32.77a5.77 5.77 0 0 0-5 2.89l-16.38 28.38a5.79 5.79 0 0 0 0 5.78l16.38 28.38a5.77 5.77 0 0 0 5 2.89h32.77c2.06 0 3.97-1.1 5-2.89l16.38-28.38a5.79 5.79 0 0 0 0-5.78l-16.38-28.38a5.77 5.77 0 0 0-5-2.89m0 73.14h-32.77a5.77 5.77 0 0 0-5 2.89l-16.38 28.38a5.79 5.79 0 0 0 0 5.78l16.38 28.38a5.77 5.77 0 0 0 5 2.89h32.77c2.06 0 3.97-1.1 5-2.89l16.38-28.38a5.79 5.79 0 0 0 0-5.78l-16.38-28.38a5.77 5.77 0 0 0-5-2.89M716.38-29.59h-32.77a5.77 5.77 0 0 0-5 2.89L662.23 1.68a5.79 5.79 0 0 0 0 5.78l16.38 28.38a5.77 5.77 0 0 0 5 2.89h32.77c2.06 0 3.97-1.1 5-2.89l16.38-28.38a5.79 5.79 0 0 0 0-5.78L721.38-26.7a5.77 5.77 0 0 0-5-2.89m0 73.14h-32.77a5.77 5.77 0 0 0-5 2.89l-16.38 28.38a5.79 5.79 0 0 0 0 5.78l16.38 28.38a5.77 5.77 0 0 0 5 2.89h32.77c2.06 0 3.97-1.1 5-2.89l16.38-28.38a5.79 5.79 0 0 0 0-5.78l-16.38-28.38a5.77 5.77 0 0 0-5-2.89"/><path fill="#00a86b" d="M716.38 117.78h-32.77a5.77 5.77 0 0 0-5 2.89l-16.38 28.38a5.79 5.79 0 0 0 0 5.78l16.38 28.38a5.77 5.77 0 0 0 5 2.89h32.77c2.06 0 3.97-1.1 5-2.89l16.38-28.38a5.79 5.79 0 0 0 0-5.78l-16.38-28.38a5.77 5.77 0 0 0-5-2.89m0 73.13h-32.77a5.77 5.77 0 0 0-5 2.89l-16.38 28.38a5.79 5.79 0 0 0 0 5.78l16.38 28.38a5.77 5.77 0 0 0 5 2.89h32.77c2.06 0 3.97-1.1 5-2.89l16.38-28.38a5.79 5.79 0 0 0 0-5.78l-16.38-28.38a5.77 5.77 0 0 0-5-2.89M649.81 7.05h-32.77a5.77 5.77 0 0 0-5 2.89l-16.38 28.38a5.79 5.79 0 0 0 0 5.78l16.38 28.38a5.77 5.77 0 0 0 5 2.89h32.77c2.06 0 3.97-1.1 5-2.89l16.38-28.38a5.79 5.79 0 0 0 0-5.78L654.81 9.94a5.77 5.77 0 0 0-5-2.89m0 73.13h-32.77a5.77 5.77 0 0 0-5 2.89l-16.38 28.38a5.79 5.79 0 0 0 0 5.78l16.38 28.38a5.77 5.77 0 0 0 5 2.89h32.77c2.06 0 3.97-1.1 5-2.89l16.38-28.38a5.79 5.79 0 0 0 0-5.78l-16.38-28.38a5.77 5.77 0 0 0-5-2.89"/><path fill="#00432b" d="M649.81 153.59h-32.77a5.77 5.77 0 0 0-5 2.89l-16.38 28.38a5.79 5.79 0 0 0 0 5.78l16.38 28.38a5.77 5.77 0 0 0 5 2.89h32.77c2.06 0 3.97-1.1 5-2.89l16.38-28.38a5.79 5.79 0 0 0 0-5.78l-16.38-28.38a5.77 5.77 0 0 0-5-2.89m0 73.14h-32.77a5.77 5.77 0 0 0-5 2.89L595.66 258a5.79 5.79 0 0 0 0 5.78l16.38 28.38a5.77 5.77 0 0 0 5 2.89h32.77c2.06 0 3.97-1.1 5-2.89l16.38-28.38a5.79 5.79 0 0 0 0-5.78l-16.38-28.38a5.77 5.77 0 0 0-5-2.89"/><path fill="#00a86b" d="M782.96 7.05h-32.77a5.77 5.77 0 0 0-5 2.89l-16.38 28.38a5.79 5.79 0 0 0 0 5.78l16.38 28.38a5.77 5.77 0 0 0 5 2.89h32.77c2.06 0 3.97-1.1 5-2.89l16.38-28.38a5.79 5.79 0 0 0 0-5.78L787.96 9.94a5.77 5.77 0 0 0-5-2.89m0 73.13h-32.77a5.77 5.77 0 0 0-5 2.89l-16.38 28.38a5.79 5.79 0 0 0 0 5.78l16.38 28.38a5.77 5.77 0 0 0 5 2.89h32.77c2.06 0 3.97-1.1 5-2.89l16.38-28.38a5.79 5.79 0 0 0 0-5.78l-16.38-28.38a5.77 5.77 0 0 0-5-2.89"/><path fill="#00432b" d="M782.96 153.59h-32.77a5.77 5.77 0 0 0-5 2.89l-16.38 28.38a5.79 5.79 0 0 0 0 5.78l16.38 28.38a5.77 5.77 0 0 0 5 2.89h32.77c2.06 0 3.97-1.1 5-2.89l16.38-28.38a5.79 5.79 0 0 0 0-5.78l-16.38-28.38a5.77 5.77 0 0 0-5-2.89m0 73.14h-32.77a5.77 5.77 0 0 0-5 2.89L728.81 258a5.79 5.79 0 0 0 0 5.78l16.38 28.38a5.77 5.77 0 0 0 5 2.89h32.77c2.06 0 3.97-1.1 5-2.89l16.38-28.38a5.79 5.79 0 0 0 0-5.78l-16.38-28.38a5.77 5.77 0 0 0-5-2.89m-66.58 36.23h-32.77a5.77 5.77 0 0 0-5 2.89l-16.38 28.38a5.79 5.79 0 0 0 0 5.78l16.38 28.38a5.77 5.77 0 0 0 5 2.89h32.77c2.06 0 3.97-1.1 5-2.89l16.38-28.38a5.79 5.79 0 0 0 0-5.78l-16.38-28.38a5.77 5.77 0 0 0-5-2.89m0 73.13h-32.77a5.77 5.77 0 0 0-5 2.89l-16.38 28.38a5.79 5.79 0 0 0 0 5.78l16.38 28.38a5.77 5.77 0 0 0 5 2.89h32.77c2.06 0 3.97-1.1 5-2.89l16.38-28.38a5.79 5.79 0 0 0 0-5.78l-16.38-28.38a5.77 5.77 0 0 0-5-2.89"/><path fill="#00a86b" d="M716.38 410.33h-32.77a5.77 5.77 0 0 0-5 2.89l-16.38 28.38a5.79 5.79 0 0 0 0 5.78l16.38 28.38a5.77 5.77 0 0 0 5 2.89h32.77c2.06 0 3.97-1.1 5-2.89l16.38-28.38a5.79 5.79 0 0 0 0-5.78l-16.38-28.38a5.77 5.77 0 0 0-5-2.89m0 73.13h-32.77a5.77 5.77 0 0 0-5 2.89l-16.38 28.38a5.79 5.79 0 0 0 0 5.78l16.38 28.38a5.77 5.77 0 0 0 5 2.89h32.77c2.06 0 3.97-1.1 5-2.89l16.38-28.38a5.79 5.79 0 0 0 0-5.78l-16.38-28.38a5.77 5.77 0 0 0-5-2.89m-66.57-183.87h-32.77a5.77 5.77 0 0 0-5 2.89l-16.38 28.38a5.79 5.79 0 0 0 0 5.78l16.38 28.38a5.77 5.77 0 0 0 5 2.89h32.77c2.06 0 3.97-1.1 5-2.89l16.38-28.38a5.79 5.79 0 0 0 0-5.78l-16.38-28.38a5.77 5.77 0 0 0-5-2.89m0 73.14h-32.77a5.77 5.77 0 0 0-5 2.89L595.66 404a5.79 5.79 0 0 0 0 5.78l16.38 28.38a5.77 5.77 0 0 0 5 2.89h32.77c2.06 0 3.97-1.1 5-2.89l16.38-28.38a5.79 5.79 0 0 0 0-5.78l-16.38-28.38a5.77 5.77 0 0 0-5-2.89"/><path fill="#00432b" d="M649.81 446.14h-32.77a5.77 5.77 0 0 0-5 2.89l-16.38 28.38a5.79 5.79 0 0 0 0 5.78l16.38 28.38a5.77 5.77 0 0 0 5 2.89h32.77c2.06 0 3.97-1.1 5-2.89l16.38-28.38a5.79 5.79 0 0 0 0-5.78l-16.38-28.38a5.77 5.77 0 0 0-5-2.89m0 73.14h-32.77a5.77 5.77 0 0 0-5 2.89l-16.38 28.38a5.79 5.79 0 0 0 0 5.78l16.38 28.38a5.77 5.77 0 0 0 5 2.89h32.77c2.06 0 3.97-1.1 5-2.89l16.38-28.38a5.79 5.79 0 0 0 0-5.78l-16.38-28.38a5.77 5.77 0 0 0-5-2.89"/><path fill="#00a86b" d="M782.96 299.59h-32.77a5.77 5.77 0 0 0-5 2.89l-16.38 28.38a5.79 5.79 0 0 0 0 5.78l16.38 28.38a5.77 5.77 0 0 0 5 2.89h32.77c2.06 0 3.97-1.1 5-2.89l16.38-28.38a5.79 5.79 0 0 0 0-5.78l-16.38-28.38a5.77 5.77 0 0 0-5-2.89m0 73.14h-32.77a5.77 5.77 0 0 0-5 2.89L728.81 404a5.79 5.79 0 0 0 0 5.78l16.38 28.38a5.77 5.77 0 0 0 5 2.89h32.77c2.06 0 3.97-1.1 5-2.89l16.38-28.38a5.79 5.79 0 0 0 0-5.78l-16.38-28.38a5.77 5.77 0 0 0-5-2.89"/><path fill="#00432b" d="M782.96 446.14h-32.77a5.77 5.77 0 0 0-5 2.89l-16.38 28.38a5.79 5.79 0 0 0 0 5.78l16.38 28.38a5.77 5.77 0 0 0 5 2.89h32.77c2.06 0 3.97-1.1 5-2.89l16.38-28.38a5.79 5.79 0 0 0 0-5.78l-16.38-28.38a5.77 5.77 0 0 0-5-2.89m0 73.14h-32.77a5.77 5.77 0 0 0-5 2.89l-16.38 28.38a5.79 5.79 0 0 0 0 5.78l16.38 28.38a5.77 5.77 0 0 0 5 2.89h32.77c2.06 0 3.97-1.1 5-2.89l16.38-28.38a5.79 5.79 0 0 0 0-5.78l-16.38-28.38a5.77 5.77 0 0 0-5-2.89M516.38 156.41h-32.77a5.77 5.77 0 0 0-5 2.89l-16.38 28.38a5.79 5.79 0 0 0 0 5.78l16.38 28.38a5.77 5.77 0 0 0 5 2.89h32.77c2.06 0 3.97-1.1 5-2.89l16.38-28.38a5.79 5.79 0 0 0 0-5.78l-16.38-28.38a5.77 5.77 0 0 0-5-2.89m0 73.14h-32.77a5.77 5.77 0 0 0-5 2.89l-16.38 28.38a5.79 5.79 0 0 0 0 5.78l16.38 28.38a5.77 5.77 0 0 0 5 2.89h32.77c2.06 0 3.97-1.1 5-2.89l16.38-28.38a5.79 5.79 0 0 0 0-5.78l-16.38-28.38a5.77 5.77 0 0 0-5-2.89"/><path fill="#00a86b" d="M516.38 303.78h-32.77a5.77 5.77 0 0 0-5 2.89l-16.38 28.38a5.79 5.79 0 0 0 0 5.78l16.38 28.38a5.77 5.77 0 0 0 5 2.89h32.77c2.06 0 3.97-1.1 5-2.89l16.38-28.38a5.79 5.79 0 0 0 0-5.78l-16.38-28.38a5.77 5.77 0 0 0-5-2.89m0 73.13h-32.77a5.77 5.77 0 0 0-5 2.89l-16.38 28.38a5.79 5.79 0 0 0 0 5.78l16.38 28.38a5.77 5.77 0 0 0 5 2.89h32.77c2.06 0 3.97-1.1 5-2.89l16.38-28.38a5.79 5.79 0 0 0 0-5.78l-16.38-28.38a5.77 5.77 0 0 0-5-2.89m-66.57-183.86h-32.77a5.77 5.77 0 0 0-5 2.89l-16.38 28.38a5.79 5.79 0 0 0 0 5.78l16.38 28.38a5.77 5.77 0 0 0 5 2.89h32.77c2.06 0 3.97-1.1 5-2.89l16.38-28.38a5.79 5.79 0 0 0 0-5.78l-16.38-28.38a5.77 5.77 0 0 0-5-2.89m0 73.13h-32.77a5.77 5.77 0 0 0-5 2.89l-16.38 28.38a5.79 5.79 0 0 0 0 5.78l16.38 28.38a5.77 5.77 0 0 0 5 2.89h32.77c2.06 0 3.97-1.1 5-2.89l16.38-28.38a5.79 5.79 0 0 0 0-5.78l-16.38-28.38a5.77 5.77 0 0 0-5-2.89"/><path fill="#00432b" d="M449.81 339.59h-32.77a5.77 5.77 0 0 0-5 2.89l-16.38 28.38a5.79 5.79 0 0 0 0 5.78l16.38 28.38a5.77 5.77 0 0 0 5 2.89h32.77c2.06 0 3.97-1.1 5-2.89l16.38-28.38a5.79 5.79 0 0 0 0-5.78l-16.38-28.38a5.77 5.77 0 0 0-5-2.89m0 73.14h-32.77a5.77 5.77 0 0 0-5 2.89L395.66 444a5.79 5.79 0 0 0 0 5.78l16.38 28.38a5.77 5.77 0 0 0 5 2.89h32.77c2.06 0 3.97-1.1 5-2.89l16.38-28.38a5.79 5.79 0 0 0 0-5.78l-16.38-28.38a5.77 5.77 0 0 0-5-2.89"/><path fill="#00a86b" d="M582.96 193.05h-32.77a5.77 5.77 0 0 0-5 2.89l-16.38 28.38a5.79 5.79 0 0 0 0 5.78l16.38 28.38a5.77 5.77 0 0 0 5 2.89h32.77c2.06 0 3.97-1.1 5-2.89l16.38-28.38a5.79 5.79 0 0 0 0-5.78l-16.38-28.38a5.77 5.77 0 0 0-5-2.89m0 73.13h-32.77a5.77 5.77 0 0 0-5 2.89l-16.38 28.38a5.79 5.79 0 0 0 0 5.78l16.38 28.38a5.77 5.77 0 0 0 5 2.89h32.77c2.06 0 3.97-1.1 5-2.89l16.38-28.38a5.79 5.79 0 0 0 0-5.78l-16.38-28.38a5.77 5.77 0 0 0-5-2.89"/><path fill="#00432b" d="M582.96 339.59h-32.77a5.77 5.77 0 0 0-5 2.89l-16.38 28.38a5.79 5.79 0 0 0 0 5.78l16.38 28.38a5.77 5.77 0 0 0 5 2.89h32.77c2.06 0 3.97-1.1 5-2.89l16.38-28.38a5.79 5.79 0 0 0 0-5.78l-16.38-28.38a5.77 5.77 0 0 0-5-2.89m0 73.14h-32.77a5.77 5.77 0 0 0-5 2.89L528.81 444a5.79 5.79 0 0 0 0 5.78l16.38 28.38a5.77 5.77 0 0 0 5 2.89h32.77c2.06 0 3.97-1.1 5-2.89l16.38-28.38a5.79 5.79 0 0 0 0-5.78l-16.38-28.38a5.77 5.77 0 0 0-5-2.89m-66.58 36.23h-32.77a5.77 5.77 0 0 0-5 2.89l-16.38 28.38a5.79 5.79 0 0 0 0 5.78l16.38 28.38a5.77 5.77 0 0 0 5 2.89h32.77c2.06 0 3.97-1.1 5-2.89l16.38-28.38a5.79 5.79 0 0 0 0-5.78l-16.38-28.38a5.77 5.77 0 0 0-5-2.89m0 73.13h-32.77a5.77 5.77 0 0 0-5 2.89l-16.38 28.38a5.79 5.79 0 0 0 0 5.78l16.38 28.38a5.77 5.77 0 0 0 5 2.89h32.77c2.06 0 3.97-1.1 5-2.89l16.38-28.38a5.79 5.79 0 0 0 0-5.78l-16.38-28.38a5.77 5.77 0 0 0-5-2.89"/><path fill="#00a86b" d="M516.38 596.33h-32.77a5.77 5.77 0 0 0-5 2.89l-16.38 28.38a5.79 5.79 0 0 0 0 5.78l16.38 28.38a5.77 5.77 0 0 0 5 2.89h32.77c2.06 0 3.97-1.1 5-2.89l16.38-28.38a5.79 5.79 0 0 0 0-5.78l-16.38-28.38a5.77 5.77 0 0 0-5-2.89m0 73.13h-32.77a5.77 5.77 0 0 0-5 2.89l-16.38 28.38a5.79 5.79 0 0 0 0 5.78l16.38 28.38a5.77 5.77 0 0 0 5 2.89h32.77c2.06 0 3.97-1.1 5-2.89l16.38-28.38a5.79 5.79 0 0 0 0-5.78l-16.38-28.38a5.77 5.77 0 0 0-5-2.89m-66.57-183.87h-32.77a5.77 5.77 0 0 0-5 2.89l-16.38 28.38a5.79 5.79 0 0 0 0 5.78l16.38 28.38a5.77 5.77 0 0 0 5 2.89h32.77c2.06 0 3.97-1.1 5-2.89l16.38-28.38a5.79 5.79 0 0 0 0-5.78l-16.38-28.38a5.77 5.77 0 0 0-5-2.89m0 73.14h-32.77a5.77 5.77 0 0 0-5 2.89L395.66 590a5.79 5.79 0 0 0 0 5.78l16.38 28.38a5.77 5.77 0 0 0 5 2.89h32.77c2.06 0 3.97-1.1 5-2.89l16.38-28.38a5.79 5.79 0 0 0 0-5.78l-16.38-28.38a5.77 5.77 0 0 0-5-2.89"/><path fill="#00432b" d="M449.81 632.14h-32.77a5.77 5.77 0 0 0-5 2.89l-16.38 28.38a5.79 5.79 0 0 0 0 5.78l16.38 28.38a5.77 5.77 0 0 0 5 2.89h32.77c2.06 0 3.97-1.1 5-2.89l16.38-28.38a5.79 5.79 0 0 0 0-5.78l-16.38-28.38a5.77 5.77 0 0 0-5-2.89m0 73.14h-32.77a5.77 5.77 0 0 0-5 2.89l-16.38 28.38a5.79 5.79 0 0 0 0 5.78l16.38 28.38a5.77 5.77 0 0 0 5 2.89h32.77c2.06 0 3.97-1.1 5-2.89l16.38-28.38a5.79 5.79 0 0 0 0-5.78l-16.38-28.38a5.77 5.77 0 0 0-5-2.89"/><path fill="#00a86b" d="M582.96 485.59h-32.77a5.77 5.77 0 0 0-5 2.89l-16.38 28.38a5.79 5.79 0 0 0 0 5.78l16.38 28.38a5.77 5.77 0 0 0 5 2.89h32.77c2.06 0 3.97-1.1 5-2.89l16.38-28.38a5.79 5.79 0 0 0 0-5.78l-16.38-28.38a5.77 5.77 0 0 0-5-2.89m0 73.14h-32.77a5.77 5.77 0 0 0-5 2.89L528.81 590a5.79 5.79 0 0 0 0 5.78l16.38 28.38a5.77 5.77 0 0 0 5 2.89h32.77c2.06 0 3.97-1.1 5-2.89l16.38-28.38a5.79 5.79 0 0 0 0-5.78l-16.38-28.38a5.77 5.77 0 0 0-5-2.89"/><path fill="#00432b" d="M582.96 632.14h-32.77a5.77 5.77 0 0 0-5 2.89l-16.38 28.38a5.79 5.79 0 0 0 0 5.78l16.38 28.38a5.77 5.77 0 0 0 5 2.89h32.77c2.06 0 3.97-1.1 5-2.89l16.38-28.38a5.79 5.79 0 0 0 0-5.78l-16.38-28.38a5.77 5.77 0 0 0-5-2.89m0 73.14h-32.77a5.77 5.77 0 0 0-5 2.89l-16.38 28.38a5.79 5.79 0 0 0 0 5.78l16.38 28.38a5.77 5.77 0 0 0 5 2.89h32.77c2.06 0 3.97-1.1 5-2.89l16.38-28.38a5.79 5.79 0 0 0 0-5.78l-16.38-28.38a5.77 5.77 0 0 0-5-2.89M316.38 342.41h-32.77a5.77 5.77 0 0 0-5 2.89l-16.38 28.38a5.79 5.79 0 0 0 0 5.78l16.38 28.38a5.77 5.77 0 0 0 5 2.89h32.77c2.06 0 3.97-1.1 5-2.89l16.38-28.38a5.79 5.79 0 0 0 0-5.78l-16.38-28.38a5.77 5.77 0 0 0-5-2.89m0 73.14h-32.77a5.77 5.77 0 0 0-5 2.89l-16.38 28.38a5.79 5.79 0 0 0 0 5.78l16.38 28.38a5.77 5.77 0 0 0 5 2.89h32.77c2.06 0 3.97-1.1 5-2.89l16.38-28.38a5.79 5.79 0 0 0 0-5.78l-16.38-28.38a5.77 5.77 0 0 0-5-2.89"/><path fill="#00a86b" d="M316.38 489.78h-32.77a5.77 5.77 0 0 0-5 2.89l-16.38 28.38a5.79 5.79 0 0 0 0 5.78l16.38 28.38a5.77 5.77 0 0 0 5 2.89h32.77c2.06 0 3.97-1.1 5-2.89l16.38-28.38a5.79 5.79 0 0 0 0-5.78l-16.38-28.38a5.77 5.77 0 0 0-5-2.89m0 73.13h-32.77a5.77 5.77 0 0 0-5 2.89l-16.38 28.38a5.79 5.79 0 0 0 0 5.78l16.38 28.38a5.77 5.77 0 0 0 5 2.89h32.77c2.06 0 3.97-1.1 5-2.89l16.38-28.38a5.79 5.79 0 0 0 0-5.78l-16.38-28.38a5.77 5.77 0 0 0-5-2.89m-66.57-183.86h-32.77a5.77 5.77 0 0 0-5 2.89l-16.38 28.38a5.79 5.79 0 0 0 0 5.78l16.38 28.38a5.77 5.77 0 0 0 5 2.89h32.77c2.06 0 3.97-1.1 5-2.89l16.38-28.38a5.79 5.79 0 0 0 0-5.78l-16.38-28.38a5.77 5.77 0 0 0-5-2.89m0 73.13h-32.77a5.77 5.77 0 0 0-5 2.89l-16.38 28.38a5.79 5.79 0 0 0 0 5.78l16.38 28.38a5.77 5.77 0 0 0 5 2.89h32.77c2.06 0 3.97-1.1 5-2.89l16.38-28.38a5.79 5.79 0 0 0 0-5.78l-16.38-28.38a5.77 5.77 0 0 0-5-2.89"/><path fill="#00432b" d="M249.81 525.59h-32.77a5.77 5.77 0 0 0-5 2.89l-16.38 28.38a5.79 5.79 0 0 0 0 5.78l16.38 28.38a5.77 5.77 0 0 0 5 2.89h32.77c2.06 0 3.97-1.1 5-2.89l16.38-28.38a5.79 5.79 0 0 0 0-5.78l-16.38-28.38a5.77 5.77 0 0 0-5-2.89m0 73.14h-32.77a5.77 5.77 0 0 0-5 2.89L195.66 630a5.79 5.79 0 0 0 0 5.78l16.38 28.38a5.77 5.77 0 0 0 5 2.89h32.77c2.06 0 3.97-1.1 5-2.89l16.38-28.38a5.79 5.79 0 0 0 0-5.78l-16.38-28.38a5.77 5.77 0 0 0-5-2.89"/><path fill="#00a86b" d="M382.96 379.05h-32.77a5.77 5.77 0 0 0-5 2.89l-16.38 28.38a5.79 5.79 0 0 0 0 5.78l16.38 28.38a5.77 5.77 0 0 0 5 2.89h32.77c2.06 0 3.97-1.1 5-2.89l16.38-28.38a5.79 5.79 0 0 0 0-5.78l-16.38-28.38a5.77 5.77 0 0 0-5-2.89m0 73.13h-32.77a5.77 5.77 0 0 0-5 2.89l-16.38 28.38a5.79 5.79 0 0 0 0 5.78l16.38 28.38a5.77 5.77 0 0 0 5 2.89h32.77c2.06 0 3.97-1.1 5-2.89l16.38-28.38a5.79 5.79 0 0 0 0-5.78l-16.38-28.38a5.77 5.77 0 0 0-5-2.89"/><path fill="#00432b" d="M382.96 525.59h-32.77a5.77 5.77 0 0 0-5 2.89l-16.38 28.38a5.79 5.79 0 0 0 0 5.78l16.38 28.38a5.77 5.77 0 0 0 5 2.89h32.77c2.06 0 3.97-1.1 5-2.89l16.38-28.38a5.79 5.79 0 0 0 0-5.78l-16.38-28.38a5.77 5.77 0 0 0-5-2.89m0 73.14h-32.77a5.77 5.77 0 0 0-5 2.89L328.81 630a5.79 5.79 0 0 0 0 5.78l16.38 28.38a5.77 5.77 0 0 0 5 2.89h32.77c2.06 0 3.97-1.1 5-2.89l16.38-28.38a5.79 5.79 0 0 0 0-5.78l-16.38-28.38a5.77 5.77 0 0 0-5-2.89m-66.58 36.23h-32.77a5.77 5.77 0 0 0-5 2.89l-16.38 28.38a5.79 5.79 0 0 0 0 5.78l16.38 28.38a5.77 5.77 0 0 0 5 2.89h32.77c2.06 0 3.97-1.1 5-2.89l16.38-28.38a5.79 5.79 0 0 0 0-5.78l-16.38-28.38a5.77 5.77 0 0 0-5-2.89m0 73.13h-32.77a5.77 5.77 0 0 0-5 2.89l-16.38 28.38a5.79 5.79 0 0 0 0 5.78l16.38 28.38a5.77 5.77 0 0 0 5 2.89h32.77c2.06 0 3.97-1.1 5-2.89l16.38-28.38a5.79 5.79 0 0 0 0-5.78l-16.38-28.38a5.77 5.77 0 0 0-5-2.89"/><path fill="#00a86b" d="M316.38 782.33h-32.77a5.77 5.77 0 0 0-5 2.89l-16.38 28.38a5.79 5.79 0 0 0 0 5.78l16.38 28.38a5.77 5.77 0 0 0 5 2.89h32.77c2.06 0 3.97-1.1 5-2.89l16.38-28.38a5.79 5.79 0 0 0 0-5.78l-16.38-28.38a5.77 5.77 0 0 0-5-2.89m0 73.13h-32.77a5.77 5.77 0 0 0-5 2.89l-16.38 28.38a5.79 5.79 0 0 0 0 5.78l16.38 28.38a5.77 5.77 0 0 0 5 2.89h32.77c2.06 0 3.97-1.1 5-2.89l16.38-28.38a5.79 5.79 0 0 0 0-5.78l-16.38-28.38a5.77 5.77 0 0 0-5-2.89m-66.57-183.87h-32.77a5.77 5.77 0 0 0-5 2.89l-16.38 28.38a5.79 5.79 0 0 0 0 5.78l16.38 28.38a5.77 5.77 0 0 0 5 2.89h32.77c2.06 0 3.97-1.1 5-2.89l16.38-28.38a5.79 5.79 0 0 0 0-5.78l-16.38-28.38a5.77 5.77 0 0 0-5-2.89m0 73.14h-32.77a5.77 5.77 0 0 0-5 2.89L195.66 776a5.79 5.79 0 0 0 0 5.78l16.38 28.38a5.77 5.77 0 0 0 5 2.89h32.77c2.06 0 3.97-1.1 5-2.89l16.38-28.38a5.79 5.79 0 0 0 0-5.78l-16.38-28.38a5.77 5.77 0 0 0-5-2.89"/><path fill="#00432b" d="M249.81 818.14h-32.77a5.77 5.77 0 0 0-5 2.89l-16.38 28.38a5.79 5.79 0 0 0 0 5.78l16.38 28.38a5.77 5.77 0 0 0 5 2.89h32.77c2.06 0 3.97-1.1 5-2.89l16.38-28.38a5.79 5.79 0 0 0 0-5.78l-16.38-28.38a5.77 5.77 0 0 0-5-2.89m0 73.14h-32.77a5.77 5.77 0 0 0-5 2.89l-16.38 28.38a5.79 5.79 0 0 0 0 5.78l16.38 28.38a5.77 5.77 0 0 0 5 2.89h32.77c2.06 0 3.97-1.1 5-2.89l16.38-28.38a5.79 5.79 0 0 0 0-5.78l-16.38-28.38a5.77 5.77 0 0 0-5-2.89"/><path fill="#00a86b" d="M382.96 671.59h-32.77a5.77 5.77 0 0 0-5 2.89l-16.38 28.38a5.79 5.79 0 0 0 0 5.78l16.38 28.38a5.77 5.77 0 0 0 5 2.89h32.77c2.06 0 3.97-1.1 5-2.89l16.38-28.38a5.79 5.79 0 0 0 0-5.78l-16.38-28.38a5.77 5.77 0 0 0-5-2.89m0 73.14h-32.77a5.77 5.77 0 0 0-5 2.89L328.81 776a5.79 5.79 0 0 0 0 5.78l16.38 28.38a5.77 5.77 0 0 0 5 2.89h32.77c2.06 0 3.97-1.1 5-2.89l16.38-28.38a5.79 5.79 0 0 0 0-5.78l-16.38-28.38a5.77 5.77 0 0 0-5-2.89"/><path fill="#00432b" d="M382.96 818.14h-32.77a5.77 5.77 0 0 0-5 2.89l-16.38 28.38a5.79 5.79 0 0 0 0 5.78l16.38 28.38a5.77 5.77 0 0 0 5 2.89h32.77c2.06 0 3.97-1.1 5-2.89l16.38-28.38a5.79 5.79 0 0 0 0-5.78l-16.38-28.38a5.77 5.77 0 0 0-5-2.89m0 73.14h-32.77a5.77 5.77 0 0 0-5 2.89l-16.38 28.38a5.79 5.79 0 0 0 0 5.78l16.38 28.38a5.77 5.77 0 0 0 5 2.89h32.77c2.06 0 3.97-1.1 5-2.89l16.38-28.38a5.79 5.79 0 0 0 0-5.78l-16.38-28.38a5.77 5.77 0 0 0-5-2.89M116.38 528.41H83.61a5.77 5.77 0 0 0-5 2.89l-16.38 28.38a5.79 5.79 0 0 0 0 5.78l16.38 28.38a5.77 5.77 0 0 0 5 2.89h32.77c2.06 0 3.97-1.1 5-2.89l16.38-28.38a5.79 5.79 0 0 0 0-5.78l-16.38-28.38a5.77 5.77 0 0 0-5-2.89m0 73.14H83.61a5.77 5.77 0 0 0-5 2.89l-16.38 28.38a5.79 5.79 0 0 0 0 5.78l16.38 28.38a5.77 5.77 0 0 0 5 2.89h32.77c2.06 0 3.97-1.1 5-2.89l16.38-28.38a5.79 5.79 0 0 0 0-5.78l-16.38-28.38a5.77 5.77 0 0 0-5-2.89"/><path fill="#00a86b" d="M116.38 675.78H83.61a5.77 5.77 0 0 0-5 2.89l-16.38 28.38a5.79 5.79 0 0 0 0 5.78l16.38 28.38a5.77 5.77 0 0 0 5 2.89h32.77c2.06 0 3.97-1.1 5-2.89l16.38-28.38a5.79 5.79 0 0 0 0-5.78l-16.38-28.38a5.77 5.77 0 0 0-5-2.89m0 73.13H83.61a5.77 5.77 0 0 0-5 2.89l-16.38 28.38a5.79 5.79 0 0 0 0 5.78l16.38 28.38a5.77 5.77 0 0 0 5 2.89h32.77c2.06 0 3.97-1.1 5-2.89l16.38-28.38a5.79 5.79 0 0 0 0-5.78l-16.38-28.38a5.77 5.77 0 0 0-5-2.89M49.81 565.05H17.04a5.77 5.77 0 0 0-5 2.89l-16.38 28.38a5.79 5.79 0 0 0 0 5.78l16.38 28.38a5.77 5.77 0 0 0 5 2.89h32.77c2.06 0 3.97-1.1 5-2.89l16.38-28.38a5.79 5.79 0 0 0 0-5.78l-16.38-28.38a5.77 5.77 0 0 0-5-2.89m0 73.13H17.04a5.77 5.77 0 0 0-5 2.89l-16.38 28.38a5.79 5.79 0 0 0 0 5.78l16.38 28.38a5.77 5.77 0 0 0 5 2.89h32.77c2.06 0 3.97-1.1 5-2.89l16.38-28.38a5.79 5.79 0 0 0 0-5.78l-16.38-28.38a5.77 5.77 0 0 0-5-2.89"/><path fill="#00432b" d="M49.81 711.59H17.04a5.77 5.77 0 0 0-5 2.89l-16.38 28.38a5.79 5.79 0 0 0 0 5.78l16.38 28.38a5.77 5.77 0 0 0 5 2.89h32.77c2.06 0 3.97-1.1 5-2.89l16.38-28.38a5.79 5.79 0 0 0 0-5.78l-16.38-28.38a5.77 5.77 0 0 0-5-2.89m0 73.14H17.04a5.77 5.77 0 0 0-5 2.89L-4.34 816a5.79 5.79 0 0 0 0 5.78l16.38 28.38a5.77 5.77 0 0 0 5 2.89h32.77c2.06 0 3.97-1.1 5-2.89l16.38-28.38a5.79 5.79 0 0 0 0-5.78l-16.38-28.38a5.77 5.77 0 0 0-5-2.89"/><path fill="#00a86b" d="M182.96 565.05h-32.77a5.77 5.77 0 0 0-5 2.89l-16.38 28.38a5.79 5.79 0 0 0 0 5.78l16.38 28.38a5.77 5.77 0 0 0 5 2.89h32.77c2.06 0 3.97-1.1 5-2.89l16.38-28.38a5.79 5.79 0 0 0 0-5.78l-16.38-28.38a5.77 5.77 0 0 0-5-2.89m0 73.13h-32.77a5.77 5.77 0 0 0-5 2.89l-16.38 28.38a5.79 5.79 0 0 0 0 5.78l16.38 28.38a5.77 5.77 0 0 0 5 2.89h32.77c2.06 0 3.97-1.1 5-2.89l16.38-28.38a5.79 5.79 0 0 0 0-5.78l-16.38-28.38a5.77 5.77 0 0 0-5-2.89"/><path fill="#00432b" d="M182.96 711.59h-32.77a5.77 5.77 0 0 0-5 2.89l-16.38 28.38a5.79 5.79 0 0 0 0 5.78l16.38 28.38a5.77 5.77 0 0 0 5 2.89h32.77c2.06 0 3.97-1.1 5-2.89l16.38-28.38a5.79 5.79 0 0 0 0-5.78l-16.38-28.38a5.77 5.77 0 0 0-5-2.89m0 73.14h-32.77a5.77 5.77 0 0 0-5 2.89L128.81 816a5.79 5.79 0 0 0 0 5.78l16.38 28.38a5.77 5.77 0 0 0 5 2.89h32.77c2.06 0 3.97-1.1 5-2.89l16.38-28.38a5.79 5.79 0 0 0 0-5.78l-16.38-28.38a5.77 5.77 0 0 0-5-2.89m-66.58 36.23H83.61a5.77 5.77 0 0 0-5 2.89l-16.38 28.38a5.79 5.79 0 0 0 0 5.78l16.38 28.38a5.77 5.77 0 0 0 5 2.89h32.77c2.06 0 3.97-1.1 5-2.89l16.38-28.38a5.79 5.79 0 0 0 0-5.78l-16.38-28.38a5.77 5.77 0 0 0-5-2.89m0 73.13H83.61a5.77 5.77 0 0 0-5 2.89l-16.38 28.38a5.79 5.79 0 0 0 0 5.78l16.38 28.38a5.77 5.77 0 0 0 5 2.89h32.77c2.06 0 3.97-1.1 5-2.89l16.38-28.38a5.79 5.79 0 0 0 0-5.78l-16.38-28.38a5.77 5.77 0 0 0-5-2.89"/><path fill="#00a86b" d="M49.81 857.59H17.04a5.77 5.77 0 0 0-5 2.89l-16.38 28.38a5.79 5.79 0 0 0 0 5.78l16.38 28.38a5.77 5.77 0 0 0 5 2.89h32.77c2.06 0 3.97-1.1 5-2.89l16.38-28.38a5.79 5.79 0 0 0 0-5.78l-16.38-28.38a5.77 5.77 0 0 0-5-2.89m133.15 0h-32.77a5.77 5.77 0 0 0-5 2.89l-16.38 28.38a5.79 5.79 0 0 0 0 5.78l16.38 28.38a5.77 5.77 0 0 0 5 2.89h32.77c2.06 0 3.97-1.1 5-2.89l16.38-28.38a5.79 5.79 0 0 0 0-5.78l-16.38-28.38a5.77 5.77 0 0 0-5-2.89"/><path fill="#00432b" d="M-17.04-32.41h-32.77a5.77 5.77 0 0 0-5 2.89L-71.2-1.14a5.79 5.79 0 0 0 0 5.78l16.38 28.38a5.77 5.77 0 0 0 5 2.89h32.78c2.06 0 3.97-1.1 5-2.89L4.35 4.64a5.79 5.79 0 0 0 0-5.78l-16.39-28.38a5.77 5.77 0 0 0-5-2.89m0 73.14h-32.77a5.77 5.77 0 0 0-5 2.89L-71.19 72a5.79 5.79 0 0 0 0 5.78l16.38 28.38a5.77 5.77 0 0 0 5 2.89h32.77c2.06 0 3.97-1.1 5-2.89L4.34 77.78a5.79 5.79 0 0 0 0-5.78l-16.38-28.38a5.77 5.77 0 0 0-5-2.89"/><path fill="#00a86b" d="M-17.04 113.59h-32.77a5.77 5.77 0 0 0-5 2.89l-16.38 28.38a5.79 5.79 0 0 0 0 5.78l16.38 28.38a5.77 5.77 0 0 0 5 2.89h32.77c2.06 0 3.97-1.1 5-2.89l16.38-28.38a5.79 5.79 0 0 0 0-5.78l-16.38-28.38a5.77 5.77 0 0 0-5-2.89m0 73.14h-32.77a5.77 5.77 0 0 0-5 2.89L-71.19 218a5.79 5.79 0 0 0 0 5.78l16.38 28.38a5.77 5.77 0 0 0 5 2.89h32.77c2.06 0 3.97-1.1 5-2.89l16.38-28.38a5.79 5.79 0 0 0 0-5.78l-16.38-28.38a5.77 5.77 0 0 0-5-2.89"/><path fill="#00432b" d="M-17.04 260.14h-32.77a5.77 5.77 0 0 0-5 2.89l-16.38 28.38a5.79 5.79 0 0 0 0 5.78l16.38 28.38a5.77 5.77 0 0 0 5 2.89h32.77c2.06 0 3.97-1.1 5-2.89l16.38-28.38a5.79 5.79 0 0 0 0-5.78l-16.38-28.38a5.77 5.77 0 0 0-5-2.89m0 73.14h-32.77a5.77 5.77 0 0 0-5 2.89l-16.38 28.38a5.79 5.79 0 0 0 0 5.78l16.38 28.38a5.77 5.77 0 0 0 5 2.89h32.77c2.06 0 3.97-1.1 5-2.89l16.38-28.38a5.79 5.79 0 0 0 0-5.78l-16.38-28.38a5.77 5.77 0 0 0-5-2.89"/><path fill="#00a86b" d="M1049.81.73h-32.77a5.77 5.77 0 0 0-5 2.89L995.66 32a5.79 5.79 0 0 0 0 5.78l16.38 28.38a5.77 5.77 0 0 0 5 2.89h32.77c2.06 0 3.97-1.1 5-2.89l16.38-28.38a5.79 5.79 0 0 0 0-5.78l-16.38-28.38a5.77 5.77 0 0 0-5-2.89"/><path fill="#00432b" d="M1049.81 74.14h-32.77a5.77 5.77 0 0 0-5 2.89l-16.38 28.38a5.79 5.79 0 0 0 0 5.78l16.38 28.38a5.77 5.77 0 0 0 5 2.89h32.77c2.06 0 3.97-1.1 5-2.89l16.38-28.38a5.79 5.79 0 0 0 0-5.78l-16.38-28.38a5.77 5.77 0 0 0-5-2.89m0 73.14h-32.77a5.77 5.77 0 0 0-5 2.89l-16.38 28.38a5.79 5.79 0 0 0 0 5.78l16.38 28.38a5.77 5.77 0 0 0 5 2.89h32.77c2.06 0 3.97-1.1 5-2.89l16.38-28.38a5.79 5.79 0 0 0 0-5.78l-16.38-28.38a5.77 5.77 0 0 0-5-2.89m-800-186h-32.77a5.77 5.77 0 0 0-5 2.89L195.66-7.45a5.79 5.79 0 0 0 0 5.78l16.38 28.38a5.77 5.77 0 0 0 5 2.89h32.77c2.06 0 3.97-1.1 5-2.89l16.38-28.38a5.79 5.79 0 0 0 0-5.78l-16.38-28.38a5.77 5.77 0 0 0-5-2.89m133.15 0h-32.77a5.77 5.77 0 0 0-5 2.89L328.81-7.45a5.79 5.79 0 0 0 0 5.78l16.38 28.38a5.77 5.77 0 0 0 5 2.89h32.77c2.06 0 3.97-1.1 5-2.89l16.38-28.38a5.79 5.79 0 0 0 0-5.78l-16.38-28.38a5.77 5.77 0 0 0-5-2.89m-266.58 2.81H83.61a5.77 5.77 0 0 0-5 2.89L62.23-4.64a5.79 5.79 0 0 0 0 5.78l16.38 28.38a5.77 5.77 0 0 0 5 2.89h32.77c2.06 0 3.97-1.1 5-2.89l16.39-28.38a5.79 5.79 0 0 0 0-5.78l-16.38-28.38a5.77 5.77 0 0 0-5-2.89Z"/><path fill="#00a86b" d="M116.38 38.33H83.61a5.77 5.77 0 0 0-5 2.89L62.23 69.6a5.79 5.79 0 0 0 0 5.78l16.38 28.38a5.77 5.77 0 0 0 5 2.89h32.77c2.06 0 3.97-1.1 5-2.89l16.38-28.38a5.79 5.79 0 0 0 0-5.78l-16.38-28.38a5.77 5.77 0 0 0-5-2.89m0 73.13H83.61a5.77 5.77 0 0 0-5 2.89l-16.38 28.38a5.79 5.79 0 0 0 0 5.78l16.38 28.38a5.77 5.77 0 0 0 5 2.89h32.77c2.06 0 3.97-1.1 5-2.89l16.38-28.38a5.79 5.79 0 0 0 0-5.78l-16.38-28.38a5.77 5.77 0 0 0-5-2.89M49.81.73H17.04a5.77 5.77 0 0 0-5 2.89L-4.35 32a5.79 5.79 0 0 0 0 5.78l16.38 28.38a5.77 5.77 0 0 0 5 2.89H49.8c2.06 0 3.97-1.1 5-2.89l16.38-28.38a5.79 5.79 0 0 0 0-5.78L54.81 3.62a5.77 5.77 0 0 0-5-2.89"/><path fill="#00432b" d="M49.81 74.14H17.04a5.77 5.77 0 0 0-5 2.89l-16.38 28.38a5.79 5.79 0 0 0 0 5.78l16.38 28.38a5.77 5.77 0 0 0 5 2.89h32.77c2.06 0 3.97-1.1 5-2.89l16.38-28.38a5.79 5.79 0 0 0 0-5.78L54.81 77.03a5.77 5.77 0 0 0-5-2.89m0 73.14H17.04a5.77 5.77 0 0 0-5 2.89l-16.38 28.38a5.79 5.79 0 0 0 0 5.78l16.38 28.38a5.77 5.77 0 0 0 5 2.89h32.77c2.06 0 3.97-1.1 5-2.89l16.38-28.38a5.79 5.79 0 0 0 0-5.78l-16.38-28.38a5.77 5.77 0 0 0-5-2.89"/><path fill="#00a86b" d="M182.96.73h-32.77a5.77 5.77 0 0 0-5 2.89L128.81 32a5.79 5.79 0 0 0 0 5.78l16.38 28.38a5.77 5.77 0 0 0 5 2.89h32.77c2.06 0 3.97-1.1 5-2.89l16.38-28.38a5.79 5.79 0 0 0 0-5.78L187.96 3.62a5.77 5.77 0 0 0-5-2.89"/><path fill="#00432b" d="M182.96 74.14h-32.77a5.77 5.77 0 0 0-5 2.89l-16.38 28.38a5.79 5.79 0 0 0 0 5.78l16.38 28.38a5.77 5.77 0 0 0 5 2.89h32.77c2.06 0 3.97-1.1 5-2.89l16.38-28.38a5.79 5.79 0 0 0 0-5.78l-16.38-28.38a5.77 5.77 0 0 0-5-2.89m0 73.14h-32.77a5.77 5.77 0 0 0-5 2.89l-16.38 28.38a5.79 5.79 0 0 0 0 5.78l16.38 28.38a5.77 5.77 0 0 0 5 2.89h32.77c2.06 0 3.97-1.1 5-2.89l16.38-28.38a5.79 5.79 0 0 0 0-5.78l-16.38-28.38a5.77 5.77 0 0 0-5-2.89"/></pattern></defs><path fill="url(#a)" d="M0 0h802v1046H0z"/></svg>