<?xml version="1.0" encoding="UTF-8"?>
<svg id="Layer_2" data-name="Layer 2" xmlns="http://www.w3.org/2000/svg" xmlns:xlink="http://www.w3.org/1999/xlink" viewBox="0 0 802 1046">
  <defs>
    <style>
      .cls-1 {
        fill: #00a86b;
      }

      .cls-2 {
        fill: #00432b;
      }

      .cls-3 {
        fill: none;
      }

      .cls-4 {
        fill: url(#HT_Pattern_1);
      }
    </style>
    <pattern id="HT_Pattern_1" x="0" y="0" width="1000" height="930" patternTransform="translate(-1198 4860)" patternUnits="userSpaceOnUse" viewBox="0 0 1000 930">
      <g>
        <rect class="cls-3" width="1000" height="930"/>
        <g>
          <g>
            <path class="cls-2" d="M916.38,714.41h-32.77c-2.06,0-3.97,1.1-5,2.89l-16.38,28.38c-1.03,1.79-1.03,3.99,0,5.78l16.38,28.38c1.03,1.79,2.94,2.89,5,2.89h32.77c2.06,0,3.97-1.1,5-2.89l16.38-28.38c1.03-1.79,1.03-3.99,0-5.78l-16.38-28.38c-1.03-1.79-2.94-2.89-5-2.89Z"/>
            <path class="cls-2" d="M916.38,787.55h-32.77c-2.06,0-3.97,1.1-5,2.89l-16.38,28.38c-1.03,1.79-1.03,3.99,0,5.78l16.38,28.38c1.03,1.79,2.94,2.89,5,2.89h32.77c2.06,0,3.97-1.1,5-2.89l16.38-28.38c1.03-1.79,1.03-3.99,0-5.78l-16.38-28.38c-1.03-1.79-2.94-2.89-5-2.89Z"/>
          </g>
          <path class="cls-1" d="M916.38,861.78h-32.77c-2.06,0-3.97,1.1-5,2.89l-16.38,28.38c-1.03,1.79-1.03,3.99,0,5.78l16.38,28.38c1.03,1.79,2.94,2.89,5,2.89h32.77c2.06,0,3.97-1.1,5-2.89l16.38-28.38c1.03-1.79,1.03-3.99,0-5.78l-16.38-28.38c-1.03-1.79-2.94-2.89-5-2.89Z"/>
          <g>
            <path class="cls-1" d="M849.81,751.05h-32.77c-2.06,0-3.97,1.1-5,2.89l-16.38,28.38c-1.03,1.79-1.03,3.99,0,5.78l16.38,28.38c1.03,1.79,2.94,2.89,5,2.89h32.77c2.06,0,3.97-1.1,5-2.89l16.38-28.38c1.03-1.79,1.03-3.99,0-5.78l-16.38-28.38c-1.03-1.79-2.94-2.89-5-2.89Z"/>
            <path class="cls-1" d="M849.81,824.18h-32.77c-2.06,0-3.97,1.1-5,2.89l-16.38,28.38c-1.03,1.79-1.03,3.99,0,5.78l16.38,28.38c1.03,1.79,2.94,2.89,5,2.89h32.77c2.06,0,3.97-1.1,5-2.89l16.38-28.38c1.03-1.79,1.03-3.99,0-5.78l-16.38-28.38c-1.03-1.79-2.94-2.89-5-2.89Z"/>
          </g>
          <path class="cls-2" d="M849.81,897.59h-32.77c-2.06,0-3.97,1.1-5,2.89l-16.38,28.38c-1.03,1.79-1.03,3.99,0,5.78l16.38,28.38c1.03,1.79,2.94,2.89,5,2.89h32.77c2.06,0,3.97-1.1,5-2.89l16.38-28.38c1.03-1.79,1.03-3.99,0-5.78l-16.38-28.38c-1.03-1.79-2.94-2.89-5-2.89Z"/>
          <g>
            <path class="cls-1" d="M982.96,751.05h-32.77c-2.06,0-3.97,1.1-5,2.89l-16.38,28.38c-1.03,1.79-1.03,3.99,0,5.78l16.38,28.38c1.03,1.79,2.94,2.89,5,2.89h32.77c2.06,0,3.97-1.1,5-2.89l16.38-28.38c1.03-1.79,1.03-3.99,0-5.78l-16.38-28.38c-1.03-1.79-2.94-2.89-5-2.89Z"/>
            <path class="cls-1" d="M982.96,824.18h-32.77c-2.06,0-3.97,1.1-5,2.89l-16.38,28.38c-1.03,1.79-1.03,3.99,0,5.78l16.38,28.38c1.03,1.79,2.94,2.89,5,2.89h32.77c2.06,0,3.97-1.1,5-2.89l16.38-28.38c1.03-1.79,1.03-3.99,0-5.78l-16.38-28.38c-1.03-1.79-2.94-2.89-5-2.89Z"/>
          </g>
          <path class="cls-2" d="M982.96,897.59h-32.77c-2.06,0-3.97,1.1-5,2.89l-16.38,28.38c-1.03,1.79-1.03,3.99,0,5.78l16.38,28.38c1.03,1.79,2.94,2.89,5,2.89h32.77c2.06,0,3.97-1.1,5-2.89l16.38-28.38c1.03-1.79,1.03-3.99,0-5.78l-16.38-28.38c-1.03-1.79-2.94-2.89-5-2.89Z"/>
        </g>
        <path class="cls-2" d="M716.38,900.41h-32.77c-2.06,0-3.97,1.1-5,2.89l-16.38,28.38c-1.03,1.79-1.03,3.99,0,5.78l16.38,28.38c1.03,1.79,2.94,2.89,5,2.89h32.77c2.06,0,3.97-1.1,5-2.89l16.38-28.38c1.03-1.79,1.03-3.99,0-5.78l-16.38-28.38c-1.03-1.79-2.94-2.89-5-2.89Z"/>
        <g>
          <g>
            <path class="cls-1" d="M-17.04,751.05h-32.77c-2.06,0-3.97,1.1-5,2.89l-16.38,28.38c-1.03,1.79-1.03,3.99,0,5.78l16.38,28.38c1.03,1.79,2.94,2.89,5,2.89H-17.04c2.06,0,3.97-1.1,5-2.89l16.38-28.38c1.03-1.79,1.03-3.99,0-5.78l-16.38-28.38c-1.03-1.79-2.94-2.89-5-2.89Z"/>
            <path class="cls-1" d="M-17.04,824.18h-32.77c-2.06,0-3.97,1.1-5,2.89l-16.38,28.38c-1.03,1.79-1.03,3.99,0,5.78l16.38,28.38c1.03,1.79,2.94,2.89,5,2.89H-17.04c2.06,0,3.97-1.1,5-2.89l16.38-28.38c1.03-1.79,1.03-3.99,0-5.78l-16.38-28.38c-1.03-1.79-2.94-2.89-5-2.89Z"/>
          </g>
          <path class="cls-2" d="M-17.04,897.59h-32.77c-2.06,0-3.97,1.1-5,2.89l-16.38,28.38c-1.03,1.79-1.03,3.99,0,5.78l16.38,28.38c1.03,1.79,2.94,2.89,5,2.89H-17.04c2.06,0,3.97-1.1,5-2.89l16.38-28.38c1.03-1.79,1.03-3.99,0-5.78l-16.38-28.38c-1.03-1.79-2.94-2.89-5-2.89Z"/>
        </g>
        <g>
          <g>
            <path class="cls-1" d="M1049.81,565.05h-32.77c-2.06,0-3.97,1.1-5,2.89l-16.38,28.38c-1.03,1.79-1.03,3.99,0,5.78l16.38,28.38c1.03,1.79,2.94,2.89,5,2.89h32.77c2.06,0,3.97-1.1,5-2.89l16.38-28.38c1.03-1.79,1.03-3.99,0-5.78l-16.38-28.38c-1.03-1.79-2.94-2.89-5-2.89Z"/>
            <path class="cls-1" d="M1049.81,638.18h-32.77c-2.06,0-3.97,1.1-5,2.89l-16.38,28.38c-1.03,1.79-1.03,3.99,0,5.78l16.38,28.38c1.03,1.79,2.94,2.89,5,2.89h32.77c2.06,0,3.97-1.1,5-2.89l16.38-28.38c1.03-1.79,1.03-3.99,0-5.78l-16.38-28.38c-1.03-1.79-2.94-2.89-5-2.89Z"/>
          </g>
          <g>
            <path class="cls-2" d="M1049.81,711.59h-32.77c-2.06,0-3.97,1.1-5,2.89l-16.38,28.38c-1.03,1.79-1.03,3.99,0,5.78l16.38,28.38c1.03,1.79,2.94,2.89,5,2.89h32.77c2.06,0,3.97-1.1,5-2.89l16.38-28.38c1.03-1.79,1.03-3.99,0-5.78l-16.38-28.38c-1.03-1.79-2.94-2.89-5-2.89Z"/>
            <path class="cls-2" d="M1049.81,784.73h-32.77c-2.06,0-3.97,1.1-5,2.89l-16.38,28.38c-1.03,1.79-1.03,3.99,0,5.78l16.38,28.38c1.03,1.79,2.94,2.89,5,2.89h32.77c2.06,0,3.97-1.1,5-2.89l16.38-28.38c1.03-1.79,1.03-3.99,0-5.78l-16.38-28.38c-1.03-1.79-2.94-2.89-5-2.89Z"/>
          </g>
          <path class="cls-1" d="M1049.81,857.59h-32.77c-2.06,0-3.97,1.1-5,2.89l-16.38,28.38c-1.03,1.79-1.03,3.99,0,5.78l16.38,28.38c1.03,1.79,2.94,2.89,5,2.89h32.77c2.06,0,3.97-1.1,5-2.89l16.38-28.38c1.03-1.79,1.03-3.99,0-5.78l-16.38-28.38c-1.03-1.79-2.94-2.89-5-2.89Z"/>
        </g>
        <g>
          <g>
            <path class="cls-1" d="M916.38-68.22h-32.77c-2.06,0-3.97,1.1-5,2.89l-16.38,28.38c-1.03,1.79-1.03,3.99,0,5.78l16.38,28.38c1.03,1.79,2.94,2.89,5,2.89h32.77c2.06,0,3.97-1.1,5-2.89l16.38-28.38c1.03-1.79,1.03-3.99,0-5.78l-16.38-28.38c-1.03-1.79-2.94-2.89-5-2.89Z"/>
            <path class="cls-1" d="M916.38,4.91h-32.77c-2.06,0-3.97,1.1-5,2.89l-16.38,28.38c-1.03,1.79-1.03,3.99,0,5.78l16.38,28.38c1.03,1.79,2.94,2.89,5,2.89h32.77c2.06,0,3.97-1.1,5-2.89l16.38-28.38c1.03-1.79,1.03-3.99,0-5.78l-16.38-28.38c-1.03-1.79-2.94-2.89-5-2.89Z"/>
          </g>
          <g>
            <path class="cls-2" d="M849.81-32.41h-32.77c-2.06,0-3.97,1.1-5,2.89l-16.38,28.38c-1.03,1.79-1.03,3.99,0,5.78l16.38,28.38c1.03,1.79,2.94,2.89,5,2.89h32.77c2.06,0,3.97-1.1,5-2.89l16.38-28.38c1.03-1.79,1.03-3.99,0-5.78l-16.38-28.38c-1.03-1.79-2.94-2.89-5-2.89Z"/>
            <path class="cls-2" d="M849.81,40.73h-32.77c-2.06,0-3.97,1.1-5,2.89l-16.38,28.38c-1.03,1.79-1.03,3.99,0,5.78l16.38,28.38c1.03,1.79,2.94,2.89,5,2.89h32.77c2.06,0,3.97-1.1,5-2.89l16.38-28.38c1.03-1.79,1.03-3.99,0-5.78l-16.38-28.38c-1.03-1.79-2.94-2.89-5-2.89Z"/>
          </g>
          <g>
            <path class="cls-2" d="M982.96-32.41h-32.77c-2.06,0-3.97,1.1-5,2.89l-16.38,28.38c-1.03,1.79-1.03,3.99,0,5.78l16.38,28.38c1.03,1.79,2.94,2.89,5,2.89h32.77c2.06,0,3.97-1.1,5-2.89l16.38-28.38c1.03-1.79,1.03-3.99,0-5.78l-16.38-28.38c-1.03-1.79-2.94-2.89-5-2.89Z"/>
            <path class="cls-2" d="M982.96,40.73h-32.77c-2.06,0-3.97,1.1-5,2.89l-16.38,28.38c-1.03,1.79-1.03,3.99,0,5.78l16.38,28.38c1.03,1.79,2.94,2.89,5,2.89h32.77c2.06,0,3.97-1.1,5-2.89l16.38-28.38c1.03-1.79,1.03-3.99,0-5.78l-16.38-28.38c-1.03-1.79-2.94-2.89-5-2.89Z"/>
          </g>
          <g>
            <path class="cls-2" d="M916.38,76.96h-32.77c-2.06,0-3.97,1.1-5,2.89l-16.38,28.38c-1.03,1.79-1.03,3.99,0,5.78l16.38,28.38c1.03,1.79,2.94,2.89,5,2.89h32.77c2.06,0,3.97-1.1,5-2.89l16.38-28.38c1.03-1.79,1.03-3.99,0-5.78l-16.38-28.38c-1.03-1.79-2.94-2.89-5-2.89Z"/>
            <path class="cls-2" d="M916.38,150.09h-32.77c-2.06,0-3.97,1.1-5,2.89l-16.38,28.38c-1.03,1.79-1.03,3.99,0,5.78l16.38,28.38c1.03,1.79,2.94,2.89,5,2.89h32.77c2.06,0,3.97-1.1,5-2.89l16.38-28.38c1.03-1.79,1.03-3.99,0-5.78l-16.38-28.38c-1.03-1.79-2.94-2.89-5-2.89Z"/>
          </g>
          <g>
            <path class="cls-1" d="M916.38,224.33h-32.77c-2.06,0-3.97,1.1-5,2.89l-16.38,28.38c-1.03,1.79-1.03,3.99,0,5.78l16.38,28.38c1.03,1.79,2.94,2.89,5,2.89h32.77c2.06,0,3.97-1.1,5-2.89l16.38-28.38c1.03-1.79,1.03-3.99,0-5.78l-16.38-28.38c-1.03-1.79-2.94-2.89-5-2.89Z"/>
            <path class="cls-1" d="M916.38,297.46h-32.77c-2.06,0-3.97,1.1-5,2.89l-16.38,28.38c-1.03,1.79-1.03,3.99,0,5.78l16.38,28.38c1.03,1.79,2.94,2.89,5,2.89h32.77c2.06,0,3.97-1.1,5-2.89l16.38-28.38c1.03-1.79,1.03-3.99,0-5.78l-16.38-28.38c-1.03-1.79-2.94-2.89-5-2.89Z"/>
          </g>
          <g>
            <path class="cls-1" d="M849.81,113.59h-32.77c-2.06,0-3.97,1.1-5,2.89l-16.38,28.38c-1.03,1.79-1.03,3.99,0,5.78l16.38,28.38c1.03,1.79,2.94,2.89,5,2.89h32.77c2.06,0,3.97-1.1,5-2.89l16.38-28.38c1.03-1.79,1.03-3.99,0-5.78l-16.38-28.38c-1.03-1.79-2.94-2.89-5-2.89Z"/>
            <path class="cls-1" d="M849.81,186.73h-32.77c-2.06,0-3.97,1.1-5,2.89l-16.38,28.38c-1.03,1.79-1.03,3.99,0,5.78l16.38,28.38c1.03,1.79,2.94,2.89,5,2.89h32.77c2.06,0,3.97-1.1,5-2.89l16.38-28.38c1.03-1.79,1.03-3.99,0-5.78l-16.38-28.38c-1.03-1.79-2.94-2.89-5-2.89Z"/>
          </g>
          <g>
            <path class="cls-2" d="M849.81,260.14h-32.77c-2.06,0-3.97,1.1-5,2.89l-16.38,28.38c-1.03,1.79-1.03,3.99,0,5.78l16.38,28.38c1.03,1.79,2.94,2.89,5,2.89h32.77c2.06,0,3.97-1.1,5-2.89l16.38-28.38c1.03-1.79,1.03-3.99,0-5.78l-16.38-28.38c-1.03-1.79-2.94-2.89-5-2.89Z"/>
            <path class="cls-2" d="M849.81,333.28h-32.77c-2.06,0-3.97,1.1-5,2.89l-16.38,28.38c-1.03,1.79-1.03,3.99,0,5.78l16.38,28.38c1.03,1.79,2.94,2.89,5,2.89h32.77c2.06,0,3.97-1.1,5-2.89l16.38-28.38c1.03-1.79,1.03-3.99,0-5.78l-16.38-28.38c-1.03-1.79-2.94-2.89-5-2.89Z"/>
          </g>
          <g>
            <path class="cls-1" d="M982.96,113.59h-32.77c-2.06,0-3.97,1.1-5,2.89l-16.38,28.38c-1.03,1.79-1.03,3.99,0,5.78l16.38,28.38c1.03,1.79,2.94,2.89,5,2.89h32.77c2.06,0,3.97-1.1,5-2.89l16.38-28.38c1.03-1.79,1.03-3.99,0-5.78l-16.38-28.38c-1.03-1.79-2.94-2.89-5-2.89Z"/>
            <path class="cls-1" d="M982.96,186.73h-32.77c-2.06,0-3.97,1.1-5,2.89l-16.38,28.38c-1.03,1.79-1.03,3.99,0,5.78l16.38,28.38c1.03,1.79,2.94,2.89,5,2.89h32.77c2.06,0,3.97-1.1,5-2.89l16.38-28.38c1.03-1.79,1.03-3.99,0-5.78l-16.38-28.38c-1.03-1.79-2.94-2.89-5-2.89Z"/>
          </g>
          <g>
            <path class="cls-2" d="M982.96,260.14h-32.77c-2.06,0-3.97,1.1-5,2.89l-16.38,28.38c-1.03,1.79-1.03,3.99,0,5.78l16.38,28.38c1.03,1.79,2.94,2.89,5,2.89h32.77c2.06,0,3.97-1.1,5-2.89l16.38-28.38c1.03-1.79,1.03-3.99,0-5.78l-16.38-28.38c-1.03-1.79-2.94-2.89-5-2.89Z"/>
            <path class="cls-2" d="M982.96,333.28h-32.77c-2.06,0-3.97,1.1-5,2.89l-16.38,28.38c-1.03,1.79-1.03,3.99,0,5.78l16.38,28.38c1.03,1.79,2.94,2.89,5,2.89h32.77c2.06,0,3.97-1.1,5-2.89l16.38-28.38c1.03-1.79,1.03-3.99,0-5.78l-16.38-28.38c-1.03-1.79-2.94-2.89-5-2.89Z"/>
          </g>
        </g>
        <g>
          <g>
            <path class="cls-2" d="M716.38-29.59h-32.77c-2.06,0-3.97,1.1-5,2.89l-16.38,28.38c-1.03,1.79-1.03,3.99,0,5.78l16.38,28.38c1.03,1.79,2.94,2.89,5,2.89h32.77c2.06,0,3.97-1.1,5-2.89l16.38-28.38c1.03-1.79,1.03-3.99,0-5.78l-16.38-28.38c-1.03-1.79-2.94-2.89-5-2.89Z"/>
            <path class="cls-2" d="M716.38,43.55h-32.77c-2.06,0-3.97,1.1-5,2.89l-16.38,28.38c-1.03,1.79-1.03,3.99,0,5.78l16.38,28.38c1.03,1.79,2.94,2.89,5,2.89h32.77c2.06,0,3.97-1.1,5-2.89l16.38-28.38c1.03-1.79,1.03-3.99,0-5.78l-16.38-28.38c-1.03-1.79-2.94-2.89-5-2.89Z"/>
          </g>
          <g>
            <path class="cls-1" d="M716.38,117.78h-32.77c-2.06,0-3.97,1.1-5,2.89l-16.38,28.38c-1.03,1.79-1.03,3.99,0,5.78l16.38,28.38c1.03,1.79,2.94,2.89,5,2.89h32.77c2.06,0,3.97-1.1,5-2.89l16.38-28.38c1.03-1.79,1.03-3.99,0-5.78l-16.38-28.38c-1.03-1.79-2.94-2.89-5-2.89Z"/>
            <path class="cls-1" d="M716.38,190.91h-32.77c-2.06,0-3.97,1.1-5,2.89l-16.38,28.38c-1.03,1.79-1.03,3.99,0,5.78l16.38,28.38c1.03,1.79,2.94,2.89,5,2.89h32.77c2.06,0,3.97-1.1,5-2.89l16.38-28.38c1.03-1.79,1.03-3.99,0-5.78l-16.38-28.38c-1.03-1.79-2.94-2.89-5-2.89Z"/>
          </g>
          <g>
            <path class="cls-1" d="M649.81,7.05h-32.77c-2.06,0-3.97,1.1-5,2.89l-16.38,28.38c-1.03,1.79-1.03,3.99,0,5.78l16.38,28.38c1.03,1.79,2.94,2.89,5,2.89h32.77c2.06,0,3.97-1.1,5-2.89l16.38-28.38c1.03-1.79,1.03-3.99,0-5.78l-16.38-28.38c-1.03-1.79-2.94-2.89-5-2.89Z"/>
            <path class="cls-1" d="M649.81,80.18h-32.77c-2.06,0-3.97,1.1-5,2.89l-16.38,28.38c-1.03,1.79-1.03,3.99,0,5.78l16.38,28.38c1.03,1.79,2.94,2.89,5,2.89h32.77c2.06,0,3.97-1.1,5-2.89l16.38-28.38c1.03-1.79,1.03-3.99,0-5.78l-16.38-28.38c-1.03-1.79-2.94-2.89-5-2.89Z"/>
          </g>
          <g>
            <path class="cls-2" d="M649.81,153.59h-32.77c-2.06,0-3.97,1.1-5,2.89l-16.38,28.38c-1.03,1.79-1.03,3.99,0,5.78l16.38,28.38c1.03,1.79,2.94,2.89,5,2.89h32.77c2.06,0,3.97-1.1,5-2.89l16.38-28.38c1.03-1.79,1.03-3.99,0-5.78l-16.38-28.38c-1.03-1.79-2.94-2.89-5-2.89Z"/>
            <path class="cls-2" d="M649.81,226.73h-32.77c-2.06,0-3.97,1.1-5,2.89l-16.38,28.38c-1.03,1.79-1.03,3.99,0,5.78l16.38,28.38c1.03,1.79,2.94,2.89,5,2.89h32.77c2.06,0,3.97-1.1,5-2.89l16.38-28.38c1.03-1.79,1.03-3.99,0-5.78l-16.38-28.38c-1.03-1.79-2.94-2.89-5-2.89Z"/>
          </g>
          <g>
            <path class="cls-1" d="M782.96,7.05h-32.77c-2.06,0-3.97,1.1-5,2.89l-16.38,28.38c-1.03,1.79-1.03,3.99,0,5.78l16.38,28.38c1.03,1.79,2.94,2.89,5,2.89h32.77c2.06,0,3.97-1.1,5-2.89l16.38-28.38c1.03-1.79,1.03-3.99,0-5.78l-16.38-28.38c-1.03-1.79-2.94-2.89-5-2.89Z"/>
            <path class="cls-1" d="M782.96,80.18h-32.77c-2.06,0-3.97,1.1-5,2.89l-16.38,28.38c-1.03,1.79-1.03,3.99,0,5.78l16.38,28.38c1.03,1.79,2.94,2.89,5,2.89h32.77c2.06,0,3.97-1.1,5-2.89l16.38-28.38c1.03-1.79,1.03-3.99,0-5.78l-16.38-28.38c-1.03-1.79-2.94-2.89-5-2.89Z"/>
          </g>
          <g>
            <path class="cls-2" d="M782.96,153.59h-32.77c-2.06,0-3.97,1.1-5,2.89l-16.38,28.38c-1.03,1.79-1.03,3.99,0,5.78l16.38,28.38c1.03,1.79,2.94,2.89,5,2.89h32.77c2.06,0,3.97-1.1,5-2.89l16.38-28.38c1.03-1.79,1.03-3.99,0-5.78l-16.38-28.38c-1.03-1.79-2.94-2.89-5-2.89Z"/>
            <path class="cls-2" d="M782.96,226.73h-32.77c-2.06,0-3.97,1.1-5,2.89l-16.38,28.38c-1.03,1.79-1.03,3.99,0,5.78l16.38,28.38c1.03,1.79,2.94,2.89,5,2.89h32.77c2.06,0,3.97-1.1,5-2.89l16.38-28.38c1.03-1.79,1.03-3.99,0-5.78l-16.38-28.38c-1.03-1.79-2.94-2.89-5-2.89Z"/>
          </g>
          <g>
            <path class="cls-2" d="M716.38,262.96h-32.77c-2.06,0-3.97,1.1-5,2.89l-16.38,28.38c-1.03,1.79-1.03,3.99,0,5.78l16.38,28.38c1.03,1.79,2.94,2.89,5,2.89h32.77c2.06,0,3.97-1.1,5-2.89l16.38-28.38c1.03-1.79,1.03-3.99,0-5.78l-16.38-28.38c-1.03-1.79-2.94-2.89-5-2.89Z"/>
            <path class="cls-2" d="M716.38,336.09h-32.77c-2.06,0-3.97,1.1-5,2.89l-16.38,28.38c-1.03,1.79-1.03,3.99,0,5.78l16.38,28.38c1.03,1.79,2.94,2.89,5,2.89h32.77c2.06,0,3.97-1.1,5-2.89l16.38-28.38c1.03-1.79,1.03-3.99,0-5.78l-16.38-28.38c-1.03-1.79-2.94-2.89-5-2.89Z"/>
          </g>
          <g>
            <path class="cls-1" d="M716.38,410.33h-32.77c-2.06,0-3.97,1.1-5,2.89l-16.38,28.38c-1.03,1.79-1.03,3.99,0,5.78l16.38,28.38c1.03,1.79,2.94,2.89,5,2.89h32.77c2.06,0,3.97-1.1,5-2.89l16.38-28.38c1.03-1.79,1.03-3.99,0-5.78l-16.38-28.38c-1.03-1.79-2.94-2.89-5-2.89Z"/>
            <path class="cls-1" d="M716.38,483.46h-32.77c-2.06,0-3.97,1.1-5,2.89l-16.38,28.38c-1.03,1.79-1.03,3.99,0,5.78l16.38,28.38c1.03,1.79,2.94,2.89,5,2.89h32.77c2.06,0,3.97-1.1,5-2.89l16.38-28.38c1.03-1.79,1.03-3.99,0-5.78l-16.38-28.38c-1.03-1.79-2.94-2.89-5-2.89Z"/>
          </g>
          <g>
            <path class="cls-1" d="M649.81,299.59h-32.77c-2.06,0-3.97,1.1-5,2.89l-16.38,28.38c-1.03,1.79-1.03,3.99,0,5.78l16.38,28.38c1.03,1.79,2.94,2.89,5,2.89h32.77c2.06,0,3.97-1.1,5-2.89l16.38-28.38c1.03-1.79,1.03-3.99,0-5.78l-16.38-28.38c-1.03-1.79-2.94-2.89-5-2.89Z"/>
            <path class="cls-1" d="M649.81,372.73h-32.77c-2.06,0-3.97,1.1-5,2.89l-16.38,28.38c-1.03,1.79-1.03,3.99,0,5.78l16.38,28.38c1.03,1.79,2.94,2.89,5,2.89h32.77c2.06,0,3.97-1.1,5-2.89l16.38-28.38c1.03-1.79,1.03-3.99,0-5.78l-16.38-28.38c-1.03-1.79-2.94-2.89-5-2.89Z"/>
          </g>
          <g>
            <path class="cls-2" d="M649.81,446.14h-32.77c-2.06,0-3.97,1.1-5,2.89l-16.38,28.38c-1.03,1.79-1.03,3.99,0,5.78l16.38,28.38c1.03,1.79,2.94,2.89,5,2.89h32.77c2.06,0,3.97-1.1,5-2.89l16.38-28.38c1.03-1.79,1.03-3.99,0-5.78l-16.38-28.38c-1.03-1.79-2.94-2.89-5-2.89Z"/>
            <path class="cls-2" d="M649.81,519.28h-32.77c-2.06,0-3.97,1.1-5,2.89l-16.38,28.38c-1.03,1.79-1.03,3.99,0,5.78l16.38,28.38c1.03,1.79,2.94,2.89,5,2.89h32.77c2.06,0,3.97-1.1,5-2.89l16.38-28.38c1.03-1.79,1.03-3.99,0-5.78l-16.38-28.38c-1.03-1.79-2.94-2.89-5-2.89Z"/>
          </g>
          <g>
            <path class="cls-1" d="M782.96,299.59h-32.77c-2.06,0-3.97,1.1-5,2.89l-16.38,28.38c-1.03,1.79-1.03,3.99,0,5.78l16.38,28.38c1.03,1.79,2.94,2.89,5,2.89h32.77c2.06,0,3.97-1.1,5-2.89l16.38-28.38c1.03-1.79,1.03-3.99,0-5.78l-16.38-28.38c-1.03-1.79-2.94-2.89-5-2.89Z"/>
            <path class="cls-1" d="M782.96,372.73h-32.77c-2.06,0-3.97,1.1-5,2.89l-16.38,28.38c-1.03,1.79-1.03,3.99,0,5.78l16.38,28.38c1.03,1.79,2.94,2.89,5,2.89h32.77c2.06,0,3.97-1.1,5-2.89l16.38-28.38c1.03-1.79,1.03-3.99,0-5.78l-16.38-28.38c-1.03-1.79-2.94-2.89-5-2.89Z"/>
          </g>
          <g>
            <path class="cls-2" d="M782.96,446.14h-32.77c-2.06,0-3.97,1.1-5,2.89l-16.38,28.38c-1.03,1.79-1.03,3.99,0,5.78l16.38,28.38c1.03,1.79,2.94,2.89,5,2.89h32.77c2.06,0,3.97-1.1,5-2.89l16.38-28.38c1.03-1.79,1.03-3.99,0-5.78l-16.38-28.38c-1.03-1.79-2.94-2.89-5-2.89Z"/>
            <path class="cls-2" d="M782.96,519.28h-32.77c-2.06,0-3.97,1.1-5,2.89l-16.38,28.38c-1.03,1.79-1.03,3.99,0,5.78l16.38,28.38c1.03,1.79,2.94,2.89,5,2.89h32.77c2.06,0,3.97-1.1,5-2.89l16.38-28.38c1.03-1.79,1.03-3.99,0-5.78l-16.38-28.38c-1.03-1.79-2.94-2.89-5-2.89Z"/>
          </g>
        </g>
        <g>
          <g>
            <path class="cls-2" d="M516.38,156.41h-32.77c-2.06,0-3.97,1.1-5,2.89l-16.38,28.38c-1.03,1.79-1.03,3.99,0,5.78l16.38,28.38c1.03,1.79,2.94,2.89,5,2.89h32.77c2.06,0,3.97-1.1,5-2.89l16.38-28.38c1.03-1.79,1.03-3.99,0-5.78l-16.38-28.38c-1.03-1.79-2.94-2.89-5-2.89Z"/>
            <path class="cls-2" d="M516.38,229.55h-32.77c-2.06,0-3.97,1.1-5,2.89l-16.38,28.38c-1.03,1.79-1.03,3.99,0,5.78l16.38,28.38c1.03,1.79,2.94,2.89,5,2.89h32.77c2.06,0,3.97-1.1,5-2.89l16.38-28.38c1.03-1.79,1.03-3.99,0-5.78l-16.38-28.38c-1.03-1.79-2.94-2.89-5-2.89Z"/>
          </g>
          <g>
            <path class="cls-1" d="M516.38,303.78h-32.77c-2.06,0-3.97,1.1-5,2.89l-16.38,28.38c-1.03,1.79-1.03,3.99,0,5.78l16.38,28.38c1.03,1.79,2.94,2.89,5,2.89h32.77c2.06,0,3.97-1.1,5-2.89l16.38-28.38c1.03-1.79,1.03-3.99,0-5.78l-16.38-28.38c-1.03-1.79-2.94-2.89-5-2.89Z"/>
            <path class="cls-1" d="M516.38,376.91h-32.77c-2.06,0-3.97,1.1-5,2.89l-16.38,28.38c-1.03,1.79-1.03,3.99,0,5.78l16.38,28.38c1.03,1.79,2.94,2.89,5,2.89h32.77c2.06,0,3.97-1.1,5-2.89l16.38-28.38c1.03-1.79,1.03-3.99,0-5.78l-16.38-28.38c-1.03-1.79-2.94-2.89-5-2.89Z"/>
          </g>
          <g>
            <path class="cls-1" d="M449.81,193.05h-32.77c-2.06,0-3.97,1.1-5,2.89l-16.38,28.38c-1.03,1.79-1.03,3.99,0,5.78l16.38,28.38c1.03,1.79,2.94,2.89,5,2.89h32.77c2.06,0,3.97-1.1,5-2.89l16.38-28.38c1.03-1.79,1.03-3.99,0-5.78l-16.38-28.38c-1.03-1.79-2.94-2.89-5-2.89Z"/>
            <path class="cls-1" d="M449.81,266.18h-32.77c-2.06,0-3.97,1.1-5,2.89l-16.38,28.38c-1.03,1.79-1.03,3.99,0,5.78l16.38,28.38c1.03,1.79,2.94,2.89,5,2.89h32.77c2.06,0,3.97-1.1,5-2.89l16.38-28.38c1.03-1.79,1.03-3.99,0-5.78l-16.38-28.38c-1.03-1.79-2.94-2.89-5-2.89Z"/>
          </g>
          <g>
            <path class="cls-2" d="M449.81,339.59h-32.77c-2.06,0-3.97,1.1-5,2.89l-16.38,28.38c-1.03,1.79-1.03,3.99,0,5.78l16.38,28.38c1.03,1.79,2.94,2.89,5,2.89h32.77c2.06,0,3.97-1.1,5-2.89l16.38-28.38c1.03-1.79,1.03-3.99,0-5.78l-16.38-28.38c-1.03-1.79-2.94-2.89-5-2.89Z"/>
            <path class="cls-2" d="M449.81,412.73h-32.77c-2.06,0-3.97,1.1-5,2.89l-16.38,28.38c-1.03,1.79-1.03,3.99,0,5.78l16.38,28.38c1.03,1.79,2.94,2.89,5,2.89h32.77c2.06,0,3.97-1.1,5-2.89l16.38-28.38c1.03-1.79,1.03-3.99,0-5.78l-16.38-28.38c-1.03-1.79-2.94-2.89-5-2.89Z"/>
          </g>
          <g>
            <path class="cls-1" d="M582.96,193.05h-32.77c-2.06,0-3.97,1.1-5,2.89l-16.38,28.38c-1.03,1.79-1.03,3.99,0,5.78l16.38,28.38c1.03,1.79,2.94,2.89,5,2.89h32.77c2.06,0,3.97-1.1,5-2.89l16.38-28.38c1.03-1.79,1.03-3.99,0-5.78l-16.38-28.38c-1.03-1.79-2.94-2.89-5-2.89Z"/>
            <path class="cls-1" d="M582.96,266.18h-32.77c-2.06,0-3.97,1.1-5,2.89l-16.38,28.38c-1.03,1.79-1.03,3.99,0,5.78l16.38,28.38c1.03,1.79,2.94,2.89,5,2.89h32.77c2.06,0,3.97-1.1,5-2.89l16.38-28.38c1.03-1.79,1.03-3.99,0-5.78l-16.38-28.38c-1.03-1.79-2.94-2.89-5-2.89Z"/>
          </g>
          <g>
            <path class="cls-2" d="M582.96,339.59h-32.77c-2.06,0-3.97,1.1-5,2.89l-16.38,28.38c-1.03,1.79-1.03,3.99,0,5.78l16.38,28.38c1.03,1.79,2.94,2.89,5,2.89h32.77c2.06,0,3.97-1.1,5-2.89l16.38-28.38c1.03-1.79,1.03-3.99,0-5.78l-16.38-28.38c-1.03-1.79-2.94-2.89-5-2.89Z"/>
            <path class="cls-2" d="M582.96,412.73h-32.77c-2.06,0-3.97,1.1-5,2.89l-16.38,28.38c-1.03,1.79-1.03,3.99,0,5.78l16.38,28.38c1.03,1.79,2.94,2.89,5,2.89h32.77c2.06,0,3.97-1.1,5-2.89l16.38-28.38c1.03-1.79,1.03-3.99,0-5.78l-16.38-28.38c-1.03-1.79-2.94-2.89-5-2.89Z"/>
          </g>
          <g>
            <path class="cls-2" d="M516.38,448.96h-32.77c-2.06,0-3.97,1.1-5,2.89l-16.38,28.38c-1.03,1.79-1.03,3.99,0,5.78l16.38,28.38c1.03,1.79,2.94,2.89,5,2.89h32.77c2.06,0,3.97-1.1,5-2.89l16.38-28.38c1.03-1.79,1.03-3.99,0-5.78l-16.38-28.38c-1.03-1.79-2.94-2.89-5-2.89Z"/>
            <path class="cls-2" d="M516.38,522.09h-32.77c-2.06,0-3.97,1.1-5,2.89l-16.38,28.38c-1.03,1.79-1.03,3.99,0,5.78l16.38,28.38c1.03,1.79,2.94,2.89,5,2.89h32.77c2.06,0,3.97-1.1,5-2.89l16.38-28.38c1.03-1.79,1.03-3.99,0-5.78l-16.38-28.38c-1.03-1.79-2.94-2.89-5-2.89Z"/>
          </g>
          <g>
            <path class="cls-1" d="M516.38,596.33h-32.77c-2.06,0-3.97,1.1-5,2.89l-16.38,28.38c-1.03,1.79-1.03,3.99,0,5.78l16.38,28.38c1.03,1.79,2.94,2.89,5,2.89h32.77c2.06,0,3.97-1.1,5-2.89l16.38-28.38c1.03-1.79,1.03-3.99,0-5.78l-16.38-28.38c-1.03-1.79-2.94-2.89-5-2.89Z"/>
            <path class="cls-1" d="M516.38,669.46h-32.77c-2.06,0-3.97,1.1-5,2.89l-16.38,28.38c-1.03,1.79-1.03,3.99,0,5.78l16.38,28.38c1.03,1.79,2.94,2.89,5,2.89h32.77c2.06,0,3.97-1.1,5-2.89l16.38-28.38c1.03-1.79,1.03-3.99,0-5.78l-16.38-28.38c-1.03-1.79-2.94-2.89-5-2.89Z"/>
          </g>
          <g>
            <path class="cls-1" d="M449.81,485.59h-32.77c-2.06,0-3.97,1.1-5,2.89l-16.38,28.38c-1.03,1.79-1.03,3.99,0,5.78l16.38,28.38c1.03,1.79,2.94,2.89,5,2.89h32.77c2.06,0,3.97-1.1,5-2.89l16.38-28.38c1.03-1.79,1.03-3.99,0-5.78l-16.38-28.38c-1.03-1.79-2.94-2.89-5-2.89Z"/>
            <path class="cls-1" d="M449.81,558.73h-32.77c-2.06,0-3.97,1.1-5,2.89l-16.38,28.38c-1.03,1.79-1.03,3.99,0,5.78l16.38,28.38c1.03,1.79,2.94,2.89,5,2.89h32.77c2.06,0,3.97-1.1,5-2.89l16.38-28.38c1.03-1.79,1.03-3.99,0-5.78l-16.38-28.38c-1.03-1.79-2.94-2.89-5-2.89Z"/>
          </g>
          <g>
            <path class="cls-2" d="M449.81,632.14h-32.77c-2.06,0-3.97,1.1-5,2.89l-16.38,28.38c-1.03,1.79-1.03,3.99,0,5.78l16.38,28.38c1.03,1.79,2.94,2.89,5,2.89h32.77c2.06,0,3.97-1.1,5-2.89l16.38-28.38c1.03-1.79,1.03-3.99,0-5.78l-16.38-28.38c-1.03-1.79-2.94-2.89-5-2.89Z"/>
            <path class="cls-2" d="M449.81,705.28h-32.77c-2.06,0-3.97,1.1-5,2.89l-16.38,28.38c-1.03,1.79-1.03,3.99,0,5.78l16.38,28.38c1.03,1.79,2.94,2.89,5,2.89h32.77c2.06,0,3.97-1.1,5-2.89l16.38-28.38c1.03-1.79,1.03-3.99,0-5.78l-16.38-28.38c-1.03-1.79-2.94-2.89-5-2.89Z"/>
          </g>
          <g>
            <path class="cls-1" d="M582.96,485.59h-32.77c-2.06,0-3.97,1.1-5,2.89l-16.38,28.38c-1.03,1.79-1.03,3.99,0,5.78l16.38,28.38c1.03,1.79,2.94,2.89,5,2.89h32.77c2.06,0,3.97-1.1,5-2.89l16.38-28.38c1.03-1.79,1.03-3.99,0-5.78l-16.38-28.38c-1.03-1.79-2.94-2.89-5-2.89Z"/>
            <path class="cls-1" d="M582.96,558.73h-32.77c-2.06,0-3.97,1.1-5,2.89l-16.38,28.38c-1.03,1.79-1.03,3.99,0,5.78l16.38,28.38c1.03,1.79,2.94,2.89,5,2.89h32.77c2.06,0,3.97-1.1,5-2.89l16.38-28.38c1.03-1.79,1.03-3.99,0-5.78l-16.38-28.38c-1.03-1.79-2.94-2.89-5-2.89Z"/>
          </g>
          <g>
            <path class="cls-2" d="M582.96,632.14h-32.77c-2.06,0-3.97,1.1-5,2.89l-16.38,28.38c-1.03,1.79-1.03,3.99,0,5.78l16.38,28.38c1.03,1.79,2.94,2.89,5,2.89h32.77c2.06,0,3.97-1.1,5-2.89l16.38-28.38c1.03-1.79,1.03-3.99,0-5.78l-16.38-28.38c-1.03-1.79-2.94-2.89-5-2.89Z"/>
            <path class="cls-2" d="M582.96,705.28h-32.77c-2.06,0-3.97,1.1-5,2.89l-16.38,28.38c-1.03,1.79-1.03,3.99,0,5.78l16.38,28.38c1.03,1.79,2.94,2.89,5,2.89h32.77c2.06,0,3.97-1.1,5-2.89l16.38-28.38c1.03-1.79,1.03-3.99,0-5.78l-16.38-28.38c-1.03-1.79-2.94-2.89-5-2.89Z"/>
          </g>
        </g>
        <g>
          <g>
            <path class="cls-2" d="M316.38,342.41h-32.77c-2.06,0-3.97,1.1-5,2.89l-16.38,28.38c-1.03,1.79-1.03,3.99,0,5.78l16.38,28.38c1.03,1.79,2.94,2.89,5,2.89h32.77c2.06,0,3.97-1.1,5-2.89l16.38-28.38c1.03-1.79,1.03-3.99,0-5.78l-16.38-28.38c-1.03-1.79-2.94-2.89-5-2.89Z"/>
            <path class="cls-2" d="M316.38,415.55h-32.77c-2.06,0-3.97,1.1-5,2.89l-16.38,28.38c-1.03,1.79-1.03,3.99,0,5.78l16.38,28.38c1.03,1.79,2.94,2.89,5,2.89h32.77c2.06,0,3.97-1.1,5-2.89l16.38-28.38c1.03-1.79,1.03-3.99,0-5.78l-16.38-28.38c-1.03-1.79-2.94-2.89-5-2.89Z"/>
          </g>
          <g>
            <path class="cls-1" d="M316.38,489.78h-32.77c-2.06,0-3.97,1.1-5,2.89l-16.38,28.38c-1.03,1.79-1.03,3.99,0,5.78l16.38,28.38c1.03,1.79,2.94,2.89,5,2.89h32.77c2.06,0,3.97-1.1,5-2.89l16.38-28.38c1.03-1.79,1.03-3.99,0-5.78l-16.38-28.38c-1.03-1.79-2.94-2.89-5-2.89Z"/>
            <path class="cls-1" d="M316.38,562.91h-32.77c-2.06,0-3.97,1.1-5,2.89l-16.38,28.38c-1.03,1.79-1.03,3.99,0,5.78l16.38,28.38c1.03,1.79,2.94,2.89,5,2.89h32.77c2.06,0,3.97-1.1,5-2.89l16.38-28.38c1.03-1.79,1.03-3.99,0-5.78l-16.38-28.38c-1.03-1.79-2.94-2.89-5-2.89Z"/>
          </g>
          <g>
            <path class="cls-1" d="M249.81,379.05h-32.77c-2.06,0-3.97,1.1-5,2.89l-16.38,28.38c-1.03,1.79-1.03,3.99,0,5.78l16.38,28.38c1.03,1.79,2.94,2.89,5,2.89h32.77c2.06,0,3.97-1.1,5-2.89l16.38-28.38c1.03-1.79,1.03-3.99,0-5.78l-16.38-28.38c-1.03-1.79-2.94-2.89-5-2.89Z"/>
            <path class="cls-1" d="M249.81,452.18h-32.77c-2.06,0-3.97,1.1-5,2.89l-16.38,28.38c-1.03,1.79-1.03,3.99,0,5.78l16.38,28.38c1.03,1.79,2.94,2.89,5,2.89h32.77c2.06,0,3.97-1.1,5-2.89l16.38-28.38c1.03-1.79,1.03-3.99,0-5.78l-16.38-28.38c-1.03-1.79-2.94-2.89-5-2.89Z"/>
          </g>
          <g>
            <path class="cls-2" d="M249.81,525.59h-32.77c-2.06,0-3.97,1.1-5,2.89l-16.38,28.38c-1.03,1.79-1.03,3.99,0,5.78l16.38,28.38c1.03,1.79,2.94,2.89,5,2.89h32.77c2.06,0,3.97-1.1,5-2.89l16.38-28.38c1.03-1.79,1.03-3.99,0-5.78l-16.38-28.38c-1.03-1.79-2.94-2.89-5-2.89Z"/>
            <path class="cls-2" d="M249.81,598.73h-32.77c-2.06,0-3.97,1.1-5,2.89l-16.38,28.38c-1.03,1.79-1.03,3.99,0,5.78l16.38,28.38c1.03,1.79,2.94,2.89,5,2.89h32.77c2.06,0,3.97-1.1,5-2.89l16.38-28.38c1.03-1.79,1.03-3.99,0-5.78l-16.38-28.38c-1.03-1.79-2.94-2.89-5-2.89Z"/>
          </g>
          <g>
            <path class="cls-1" d="M382.96,379.05h-32.77c-2.06,0-3.97,1.1-5,2.89l-16.38,28.38c-1.03,1.79-1.03,3.99,0,5.78l16.38,28.38c1.03,1.79,2.94,2.89,5,2.89h32.77c2.06,0,3.97-1.1,5-2.89l16.38-28.38c1.03-1.79,1.03-3.99,0-5.78l-16.38-28.38c-1.03-1.79-2.94-2.89-5-2.89Z"/>
            <path class="cls-1" d="M382.96,452.18h-32.77c-2.06,0-3.97,1.1-5,2.89l-16.38,28.38c-1.03,1.79-1.03,3.99,0,5.78l16.38,28.38c1.03,1.79,2.94,2.89,5,2.89h32.77c2.06,0,3.97-1.1,5-2.89l16.38-28.38c1.03-1.79,1.03-3.99,0-5.78l-16.38-28.38c-1.03-1.79-2.94-2.89-5-2.89Z"/>
          </g>
          <g>
            <path class="cls-2" d="M382.96,525.59h-32.77c-2.06,0-3.97,1.1-5,2.89l-16.38,28.38c-1.03,1.79-1.03,3.99,0,5.78l16.38,28.38c1.03,1.79,2.94,2.89,5,2.89h32.77c2.06,0,3.97-1.1,5-2.89l16.38-28.38c1.03-1.79,1.03-3.99,0-5.78l-16.38-28.38c-1.03-1.79-2.94-2.89-5-2.89Z"/>
            <path class="cls-2" d="M382.96,598.73h-32.77c-2.06,0-3.97,1.1-5,2.89l-16.38,28.38c-1.03,1.79-1.03,3.99,0,5.78l16.38,28.38c1.03,1.79,2.94,2.89,5,2.89h32.77c2.06,0,3.97-1.1,5-2.89l16.38-28.38c1.03-1.79,1.03-3.99,0-5.78l-16.38-28.38c-1.03-1.79-2.94-2.89-5-2.89Z"/>
          </g>
          <g>
            <path class="cls-2" d="M316.38,634.96h-32.77c-2.06,0-3.97,1.1-5,2.89l-16.38,28.38c-1.03,1.79-1.03,3.99,0,5.78l16.38,28.38c1.03,1.79,2.94,2.89,5,2.89h32.77c2.06,0,3.97-1.1,5-2.89l16.38-28.38c1.03-1.79,1.03-3.99,0-5.78l-16.38-28.38c-1.03-1.79-2.94-2.89-5-2.89Z"/>
            <path class="cls-2" d="M316.38,708.09h-32.77c-2.06,0-3.97,1.1-5,2.89l-16.38,28.38c-1.03,1.79-1.03,3.99,0,5.78l16.38,28.38c1.03,1.79,2.94,2.89,5,2.89h32.77c2.06,0,3.97-1.1,5-2.89l16.38-28.38c1.03-1.79,1.03-3.99,0-5.78l-16.38-28.38c-1.03-1.79-2.94-2.89-5-2.89Z"/>
          </g>
          <g>
            <path class="cls-1" d="M316.38,782.33h-32.77c-2.06,0-3.97,1.1-5,2.89l-16.38,28.38c-1.03,1.79-1.03,3.99,0,5.78l16.38,28.38c1.03,1.79,2.94,2.89,5,2.89h32.77c2.06,0,3.97-1.1,5-2.89l16.38-28.38c1.03-1.79,1.03-3.99,0-5.78l-16.38-28.38c-1.03-1.79-2.94-2.89-5-2.89Z"/>
            <path class="cls-1" d="M316.38,855.46h-32.77c-2.06,0-3.97,1.1-5,2.89l-16.38,28.38c-1.03,1.79-1.03,3.99,0,5.78l16.38,28.38c1.03,1.79,2.94,2.89,5,2.89h32.77c2.06,0,3.97-1.1,5-2.89l16.38-28.38c1.03-1.79,1.03-3.99,0-5.78l-16.38-28.38c-1.03-1.79-2.94-2.89-5-2.89Z"/>
          </g>
          <g>
            <path class="cls-1" d="M249.81,671.59h-32.77c-2.06,0-3.97,1.1-5,2.89l-16.38,28.38c-1.03,1.79-1.03,3.99,0,5.78l16.38,28.38c1.03,1.79,2.94,2.89,5,2.89h32.77c2.06,0,3.97-1.1,5-2.89l16.38-28.38c1.03-1.79,1.03-3.99,0-5.78l-16.38-28.38c-1.03-1.79-2.94-2.89-5-2.89Z"/>
            <path class="cls-1" d="M249.81,744.73h-32.77c-2.06,0-3.97,1.1-5,2.89l-16.38,28.38c-1.03,1.79-1.03,3.99,0,5.78l16.38,28.38c1.03,1.79,2.94,2.89,5,2.89h32.77c2.06,0,3.97-1.1,5-2.89l16.38-28.38c1.03-1.79,1.03-3.99,0-5.78l-16.38-28.38c-1.03-1.79-2.94-2.89-5-2.89Z"/>
          </g>
          <g>
            <path class="cls-2" d="M249.81,818.14h-32.77c-2.06,0-3.97,1.1-5,2.89l-16.38,28.38c-1.03,1.79-1.03,3.99,0,5.78l16.38,28.38c1.03,1.79,2.94,2.89,5,2.89h32.77c2.06,0,3.97-1.1,5-2.89l16.38-28.38c1.03-1.79,1.03-3.99,0-5.78l-16.38-28.38c-1.03-1.79-2.94-2.89-5-2.89Z"/>
            <path class="cls-2" d="M249.81,891.28h-32.77c-2.06,0-3.97,1.1-5,2.89l-16.38,28.38c-1.03,1.79-1.03,3.99,0,5.78l16.38,28.38c1.03,1.79,2.94,2.89,5,2.89h32.77c2.06,0,3.97-1.1,5-2.89l16.38-28.38c1.03-1.79,1.03-3.99,0-5.78l-16.38-28.38c-1.03-1.79-2.94-2.89-5-2.89Z"/>
          </g>
          <g>
            <path class="cls-1" d="M382.96,671.59h-32.77c-2.06,0-3.97,1.1-5,2.89l-16.38,28.38c-1.03,1.79-1.03,3.99,0,5.78l16.38,28.38c1.03,1.79,2.94,2.89,5,2.89h32.77c2.06,0,3.97-1.1,5-2.89l16.38-28.38c1.03-1.79,1.03-3.99,0-5.78l-16.38-28.38c-1.03-1.79-2.94-2.89-5-2.89Z"/>
            <path class="cls-1" d="M382.96,744.73h-32.77c-2.06,0-3.97,1.1-5,2.89l-16.38,28.38c-1.03,1.79-1.03,3.99,0,5.78l16.38,28.38c1.03,1.79,2.94,2.89,5,2.89h32.77c2.06,0,3.97-1.1,5-2.89l16.38-28.38c1.03-1.79,1.03-3.99,0-5.78l-16.38-28.38c-1.03-1.79-2.94-2.89-5-2.89Z"/>
          </g>
          <g>
            <path class="cls-2" d="M382.96,818.14h-32.77c-2.06,0-3.97,1.1-5,2.89l-16.38,28.38c-1.03,1.79-1.03,3.99,0,5.78l16.38,28.38c1.03,1.79,2.94,2.89,5,2.89h32.77c2.06,0,3.97-1.1,5-2.89l16.38-28.38c1.03-1.79,1.03-3.99,0-5.78l-16.38-28.38c-1.03-1.79-2.94-2.89-5-2.89Z"/>
            <path class="cls-2" d="M382.96,891.28h-32.77c-2.06,0-3.97,1.1-5,2.89l-16.38,28.38c-1.03,1.79-1.03,3.99,0,5.78l16.38,28.38c1.03,1.79,2.94,2.89,5,2.89h32.77c2.06,0,3.97-1.1,5-2.89l16.38-28.38c1.03-1.79,1.03-3.99,0-5.78l-16.38-28.38c-1.03-1.79-2.94-2.89-5-2.89Z"/>
          </g>
        </g>
        <g>
          <g>
            <path class="cls-2" d="M116.38,528.41h-32.77c-2.06,0-3.97,1.1-5,2.89l-16.38,28.38c-1.03,1.79-1.03,3.99,0,5.78l16.38,28.38c1.03,1.79,2.94,2.89,5,2.89h32.77c2.06,0,3.97-1.1,5-2.89l16.38-28.38c1.03-1.79,1.03-3.99,0-5.78l-16.38-28.38c-1.03-1.79-2.94-2.89-5-2.89Z"/>
            <path class="cls-2" d="M116.38,601.55h-32.77c-2.06,0-3.97,1.1-5,2.89l-16.38,28.38c-1.03,1.79-1.03,3.99,0,5.78l16.38,28.38c1.03,1.79,2.94,2.89,5,2.89h32.77c2.06,0,3.97-1.1,5-2.89l16.38-28.38c1.03-1.79,1.03-3.99,0-5.78l-16.38-28.38c-1.03-1.79-2.94-2.89-5-2.89Z"/>
          </g>
          <g>
            <path class="cls-1" d="M116.38,675.78h-32.77c-2.06,0-3.97,1.1-5,2.89l-16.38,28.38c-1.03,1.79-1.03,3.99,0,5.78l16.38,28.38c1.03,1.79,2.94,2.89,5,2.89h32.77c2.06,0,3.97-1.1,5-2.89l16.38-28.38c1.03-1.79,1.03-3.99,0-5.78l-16.38-28.38c-1.03-1.79-2.94-2.89-5-2.89Z"/>
            <path class="cls-1" d="M116.38,748.91h-32.77c-2.06,0-3.97,1.1-5,2.89l-16.38,28.38c-1.03,1.79-1.03,3.99,0,5.78l16.38,28.38c1.03,1.79,2.94,2.89,5,2.89h32.77c2.06,0,3.97-1.1,5-2.89l16.38-28.38c1.03-1.79,1.03-3.99,0-5.78l-16.38-28.38c-1.03-1.79-2.94-2.89-5-2.89Z"/>
          </g>
          <g>
            <path class="cls-1" d="M49.81,565.05H17.04c-2.06,0-3.97,1.1-5,2.89l-16.38,28.38c-1.03,1.79-1.03,3.99,0,5.78l16.38,28.38c1.03,1.79,2.94,2.89,5,2.89h32.77c2.06,0,3.97-1.1,5-2.89l16.38-28.38c1.03-1.79,1.03-3.99,0-5.78l-16.38-28.38c-1.03-1.79-2.94-2.89-5-2.89Z"/>
            <path class="cls-1" d="M49.81,638.18H17.04c-2.06,0-3.97,1.1-5,2.89l-16.38,28.38c-1.03,1.79-1.03,3.99,0,5.78l16.38,28.38c1.03,1.79,2.94,2.89,5,2.89h32.77c2.06,0,3.97-1.1,5-2.89l16.38-28.38c1.03-1.79,1.03-3.99,0-5.78l-16.38-28.38c-1.03-1.79-2.94-2.89-5-2.89Z"/>
          </g>
          <g>
            <path class="cls-2" d="M49.81,711.59H17.04c-2.06,0-3.97,1.1-5,2.89l-16.38,28.38c-1.03,1.79-1.03,3.99,0,5.78l16.38,28.38c1.03,1.79,2.94,2.89,5,2.89h32.77c2.06,0,3.97-1.1,5-2.89l16.38-28.38c1.03-1.79,1.03-3.99,0-5.78l-16.38-28.38c-1.03-1.79-2.94-2.89-5-2.89Z"/>
            <path class="cls-2" d="M49.81,784.73H17.04c-2.06,0-3.97,1.1-5,2.89l-16.38,28.38c-1.03,1.79-1.03,3.99,0,5.78l16.38,28.38c1.03,1.79,2.94,2.89,5,2.89h32.77c2.06,0,3.97-1.1,5-2.89l16.38-28.38c1.03-1.79,1.03-3.99,0-5.78l-16.38-28.38c-1.03-1.79-2.94-2.89-5-2.89Z"/>
          </g>
          <g>
            <path class="cls-1" d="M182.96,565.05h-32.77c-2.06,0-3.97,1.1-5,2.89l-16.38,28.38c-1.03,1.79-1.03,3.99,0,5.78l16.38,28.38c1.03,1.79,2.94,2.89,5,2.89h32.77c2.06,0,3.97-1.1,5-2.89l16.38-28.38c1.03-1.79,1.03-3.99,0-5.78l-16.38-28.38c-1.03-1.79-2.94-2.89-5-2.89Z"/>
            <path class="cls-1" d="M182.96,638.18h-32.77c-2.06,0-3.97,1.1-5,2.89l-16.38,28.38c-1.03,1.79-1.03,3.99,0,5.78l16.38,28.38c1.03,1.79,2.94,2.89,5,2.89h32.77c2.06,0,3.97-1.1,5-2.89l16.38-28.38c1.03-1.79,1.03-3.99,0-5.78l-16.38-28.38c-1.03-1.79-2.94-2.89-5-2.89Z"/>
          </g>
          <g>
            <path class="cls-2" d="M182.96,711.59h-32.77c-2.06,0-3.97,1.1-5,2.89l-16.38,28.38c-1.03,1.79-1.03,3.99,0,5.78l16.38,28.38c1.03,1.79,2.94,2.89,5,2.89h32.77c2.06,0,3.97-1.1,5-2.89l16.38-28.38c1.03-1.79,1.03-3.99,0-5.78l-16.38-28.38c-1.03-1.79-2.94-2.89-5-2.89Z"/>
            <path class="cls-2" d="M182.96,784.73h-32.77c-2.06,0-3.97,1.1-5,2.89l-16.38,28.38c-1.03,1.79-1.03,3.99,0,5.78l16.38,28.38c1.03,1.79,2.94,2.89,5,2.89h32.77c2.06,0,3.97-1.1,5-2.89l16.38-28.38c1.03-1.79,1.03-3.99,0-5.78l-16.38-28.38c-1.03-1.79-2.94-2.89-5-2.89Z"/>
          </g>
          <g>
            <path class="cls-2" d="M116.38,820.96h-32.77c-2.06,0-3.97,1.1-5,2.89l-16.38,28.38c-1.03,1.79-1.03,3.99,0,5.78l16.38,28.38c1.03,1.79,2.94,2.89,5,2.89h32.77c2.06,0,3.97-1.1,5-2.89l16.38-28.38c1.03-1.79,1.03-3.99,0-5.78l-16.38-28.38c-1.03-1.79-2.94-2.89-5-2.89Z"/>
            <path class="cls-2" d="M116.38,894.09h-32.77c-2.06,0-3.97,1.1-5,2.89l-16.38,28.38c-1.03,1.79-1.03,3.99,0,5.78l16.38,28.38c1.03,1.79,2.94,2.89,5,2.89h32.77c2.06,0,3.97-1.1,5-2.89l16.38-28.38c1.03-1.79,1.03-3.99,0-5.78l-16.38-28.38c-1.03-1.79-2.94-2.89-5-2.89Z"/>
          </g>
          <path class="cls-1" d="M49.81,857.59H17.04c-2.06,0-3.97,1.1-5,2.89l-16.38,28.38c-1.03,1.79-1.03,3.99,0,5.78l16.38,28.38c1.03,1.79,2.94,2.89,5,2.89h32.77c2.06,0,3.97-1.1,5-2.89l16.38-28.38c1.03-1.79,1.03-3.99,0-5.78l-16.38-28.38c-1.03-1.79-2.94-2.89-5-2.89Z"/>
          <path class="cls-1" d="M182.96,857.59h-32.77c-2.06,0-3.97,1.1-5,2.89l-16.38,28.38c-1.03,1.79-1.03,3.99,0,5.78l16.38,28.38c1.03,1.79,2.94,2.89,5,2.89h32.77c2.06,0,3.97-1.1,5-2.89l16.38-28.38c1.03-1.79,1.03-3.99,0-5.78l-16.38-28.38c-1.03-1.79-2.94-2.89-5-2.89Z"/>
        </g>
        <g>
          <g>
            <path class="cls-2" d="M-17.04-32.41h-32.77c-2.06,0-3.97,1.1-5,2.89L-71.2-1.14c-1.03,1.79-1.03,3.99,0,5.78l16.38,28.38c1.03,1.79,2.94,2.89,5,2.89H-17.04c2.06,0,3.97-1.1,5-2.89L4.35,4.64c1.03-1.79,1.03-3.99,0-5.78L-12.04-29.52c-1.03-1.79-2.94-2.89-5-2.89Z"/>
            <path class="cls-2" d="M-17.04,40.73h-32.77c-2.06,0-3.97,1.1-5,2.89l-16.38,28.38c-1.03,1.79-1.03,3.99,0,5.78l16.38,28.38c1.03,1.79,2.94,2.89,5,2.89H-17.04c2.06,0,3.97-1.1,5-2.89l16.38-28.38c1.03-1.79,1.03-3.99,0-5.78l-16.38-28.38c-1.03-1.79-2.94-2.89-5-2.89Z"/>
          </g>
          <g>
            <path class="cls-1" d="M-17.04,113.59h-32.77c-2.06,0-3.97,1.1-5,2.89l-16.38,28.38c-1.03,1.79-1.03,3.99,0,5.78l16.38,28.38c1.03,1.79,2.94,2.89,5,2.89H-17.04c2.06,0,3.97-1.1,5-2.89l16.38-28.38c1.03-1.79,1.03-3.99,0-5.78l-16.38-28.38c-1.03-1.79-2.94-2.89-5-2.89Z"/>
            <path class="cls-1" d="M-17.04,186.73h-32.77c-2.06,0-3.97,1.1-5,2.89l-16.38,28.38c-1.03,1.79-1.03,3.99,0,5.78l16.38,28.38c1.03,1.79,2.94,2.89,5,2.89H-17.04c2.06,0,3.97-1.1,5-2.89l16.38-28.38c1.03-1.79,1.03-3.99,0-5.78l-16.38-28.38c-1.03-1.79-2.94-2.89-5-2.89Z"/>
          </g>
          <g>
            <path class="cls-2" d="M-17.04,260.14h-32.77c-2.06,0-3.97,1.1-5,2.89l-16.38,28.38c-1.03,1.79-1.03,3.99,0,5.78l16.38,28.38c1.03,1.79,2.94,2.89,5,2.89H-17.04c2.06,0,3.97-1.1,5-2.89l16.38-28.38c1.03-1.79,1.03-3.99,0-5.78l-16.38-28.38c-1.03-1.79-2.94-2.89-5-2.89Z"/>
            <path class="cls-2" d="M-17.04,333.28h-32.77c-2.06,0-3.97,1.1-5,2.89l-16.38,28.38c-1.03,1.79-1.03,3.99,0,5.78l16.38,28.38c1.03,1.79,2.94,2.89,5,2.89H-17.04c2.06,0,3.97-1.1,5-2.89l16.38-28.38c1.03-1.79,1.03-3.99,0-5.78l-16.38-28.38c-1.03-1.79-2.94-2.89-5-2.89Z"/>
          </g>
        </g>
        <g>
          <path class="cls-1" d="M1049.81.73h-32.77c-2.06,0-3.97,1.1-5,2.89l-16.38,28.38c-1.03,1.79-1.03,3.99,0,5.78l16.38,28.38c1.03,1.79,2.94,2.89,5,2.89h32.77c2.06,0,3.97-1.1,5-2.89l16.38-28.38c1.03-1.79,1.03-3.99,0-5.78l-16.38-28.38c-1.03-1.79-2.94-2.89-5-2.89Z"/>
          <g>
            <path class="cls-2" d="M1049.81,74.14h-32.77c-2.06,0-3.97,1.1-5,2.89l-16.38,28.38c-1.03,1.79-1.03,3.99,0,5.78l16.38,28.38c1.03,1.79,2.94,2.89,5,2.89h32.77c2.06,0,3.97-1.1,5-2.89l16.38-28.38c1.03-1.79,1.03-3.99,0-5.78l-16.38-28.38c-1.03-1.79-2.94-2.89-5-2.89Z"/>
            <path class="cls-2" d="M1049.81,147.28h-32.77c-2.06,0-3.97,1.1-5,2.89l-16.38,28.38c-1.03,1.79-1.03,3.99,0,5.78l16.38,28.38c1.03,1.79,2.94,2.89,5,2.89h32.77c2.06,0,3.97-1.1,5-2.89l16.38-28.38c1.03-1.79,1.03-3.99,0-5.78l-16.38-28.38c-1.03-1.79-2.94-2.89-5-2.89Z"/>
          </g>
        </g>
        <g>
          <path class="cls-2" d="M249.81-38.72h-32.77c-2.06,0-3.97,1.1-5,2.89l-16.38,28.38c-1.03,1.79-1.03,3.99,0,5.78l16.38,28.38c1.03,1.79,2.94,2.89,5,2.89h32.77c2.06,0,3.97-1.1,5-2.89l16.38-28.38c1.03-1.79,1.03-3.99,0-5.78l-16.38-28.38c-1.03-1.79-2.94-2.89-5-2.89Z"/>
          <path class="cls-2" d="M382.96-38.72h-32.77c-2.06,0-3.97,1.1-5,2.89l-16.38,28.38c-1.03,1.79-1.03,3.99,0,5.78l16.38,28.38c1.03,1.79,2.94,2.89,5,2.89h32.77c2.06,0,3.97-1.1,5-2.89l16.38-28.38c1.03-1.79,1.03-3.99,0-5.78l-16.38-28.38c-1.03-1.79-2.94-2.89-5-2.89Z"/>
        </g>
        <g>
          <path class="cls-2" d="M116.38-35.91h-32.77c-2.06,0-3.97,1.1-5,2.89L62.23-4.64c-1.03,1.79-1.03,3.99,0,5.78l16.38,28.38c1.03,1.79,2.94,2.89,5,2.89h32.77c2.06,0,3.97-1.1,5-2.89L137.77,1.14c1.03-1.79,1.03-3.99,0-5.78l-16.38-28.38c-1.03-1.79-2.94-2.89-5-2.89Z"/>
          <g>
            <path class="cls-1" d="M116.38,38.33h-32.77c-2.06,0-3.97,1.1-5,2.89l-16.38,28.38c-1.03,1.79-1.03,3.99,0,5.78l16.38,28.38c1.03,1.79,2.94,2.89,5,2.89h32.77c2.06,0,3.97-1.1,5-2.89l16.38-28.38c1.03-1.79,1.03-3.99,0-5.78l-16.38-28.38c-1.03-1.79-2.94-2.89-5-2.89Z"/>
            <path class="cls-1" d="M116.38,111.46h-32.77c-2.06,0-3.97,1.1-5,2.89l-16.38,28.38c-1.03,1.79-1.03,3.99,0,5.78l16.38,28.38c1.03,1.79,2.94,2.89,5,2.89h32.77c2.06,0,3.97-1.1,5-2.89l16.38-28.38c1.03-1.79,1.03-3.99,0-5.78l-16.38-28.38c-1.03-1.79-2.94-2.89-5-2.89Z"/>
          </g>
          <path class="cls-1" d="M49.81.73H17.04c-2.06,0-3.97,1.1-5,2.89L-4.35,32c-1.03,1.79-1.03,3.99,0,5.78l16.38,28.38c1.03,1.79,2.94,2.89,5,2.89h32.77c2.06,0,3.97-1.1,5-2.89l16.38-28.38c1.03-1.79,1.03-3.99,0-5.78L54.81,3.62c-1.03-1.79-2.94-2.89-5-2.89Z"/>
          <g>
            <path class="cls-2" d="M49.81,74.14H17.04c-2.06,0-3.97,1.1-5,2.89l-16.38,28.38c-1.03,1.79-1.03,3.99,0,5.78l16.38,28.38c1.03,1.79,2.94,2.89,5,2.89h32.77c2.06,0,3.97-1.1,5-2.89l16.38-28.38c1.03-1.79,1.03-3.99,0-5.78l-16.38-28.38c-1.03-1.79-2.94-2.89-5-2.89Z"/>
            <path class="cls-2" d="M49.81,147.28H17.04c-2.06,0-3.97,1.1-5,2.89l-16.38,28.38c-1.03,1.79-1.03,3.99,0,5.78l16.38,28.38c1.03,1.79,2.94,2.89,5,2.89h32.77c2.06,0,3.97-1.1,5-2.89l16.38-28.38c1.03-1.79,1.03-3.99,0-5.78l-16.38-28.38c-1.03-1.79-2.94-2.89-5-2.89Z"/>
          </g>
          <path class="cls-1" d="M182.96.73h-32.77c-2.06,0-3.97,1.1-5,2.89l-16.38,28.38c-1.03,1.79-1.03,3.99,0,5.78l16.38,28.38c1.03,1.79,2.94,2.89,5,2.89h32.77c2.06,0,3.97-1.1,5-2.89l16.38-28.38c1.03-1.79,1.03-3.99,0-5.78l-16.38-28.38c-1.03-1.79-2.94-2.89-5-2.89Z"/>
          <g>
            <path class="cls-2" d="M182.96,74.14h-32.77c-2.06,0-3.97,1.1-5,2.89l-16.38,28.38c-1.03,1.79-1.03,3.99,0,5.78l16.38,28.38c1.03,1.79,2.94,2.89,5,2.89h32.77c2.06,0,3.97-1.1,5-2.89l16.38-28.38c1.03-1.79,1.03-3.99,0-5.78l-16.38-28.38c-1.03-1.79-2.94-2.89-5-2.89Z"/>
            <path class="cls-2" d="M182.96,147.28h-32.77c-2.06,0-3.97,1.1-5,2.89l-16.38,28.38c-1.03,1.79-1.03,3.99,0,5.78l16.38,28.38c1.03,1.79,2.94,2.89,5,2.89h32.77c2.06,0,3.97-1.1,5-2.89l16.38-28.38c1.03-1.79,1.03-3.99,0-5.78l-16.38-28.38c-1.03-1.79-2.94-2.89-5-2.89Z"/>
          </g>
        </g>
      </g>
    </pattern>
  </defs>
  <g id="Pattern">
    <rect class="cls-4" width="802" height="1046"/>
  </g>
</svg>