<svg xmlns="http://www.w3.org/2000/svg" viewBox="19 28 146 133"><path fill="currentColor" d="M160 33c1.048 3.206.935 5.133-.04 8.344l-.753 2.511-.832 2.645-.826 2.711c-1.863 5.981-4.014 11.647-6.764 17.281-1.641 5.243.581 9.763 2.715 14.57 1.62 3.659 2.861 6.982 3.5 10.938-3.448-1.443-5.28-3.243-7.625-6.125A71 71 0 0 0 146 82h-2c-1.092 1.706-2.097 3.469-3.062 5.25-9.94 17.44-22.39 32.256-41.997 38.395C90.02 128.03 80.375 128.316 72 124c-4.395-3.63-7.739-7.431-8.328-13.227l.078-3.398c.015-1.127.03-2.253.047-3.414C64 101 64 101 65 98h2l.688 3.25c1.464 4.185 2.599 5.451 6.312 7.75 10.555 3.396 21.31.551 31-4 3.597-2.056 6.798-4.375 10-7l2.52-2.062C123.695 90.625 129.413 84.758 134 78v-3c-18.098-5.305-35.83 2.008-52 10a151 151 0 0 0-10 6c0-3 0-3 1.914-5.129 15.143-13.594 33.745-28.56 55.074-28.266 4.726.62 8.163 2.698 12.012 5.395l3 2 .828-2.164c1.17-2.833 2.495-5.502 3.922-8.215l1.594-3.04L152 48.436l3.25-6.19 1.453-2.76A347 347 0 0 0 160 33"/><path fill="currentColor" d="M157 103c1.71 4.108.187 7.684-1.125 11.688l-.697 2.167c-1.811 5.438-4.006 10.352-7.178 15.145l-1.355 2.094c-1.142 1.687-2.385 3.305-3.645 4.906h-2v2c-10.544 9.982-21.285 14.542-35.836 14.313C78.73 153.813 41.822 136.48 24 117l2-1c2.387.953 4.678 1.969 7 3.063 27.89 12.653 63.078 23.162 93 11.937 13.42-5.76 23.62-15.39 31-28"/></svg>
